<svg width="15" height="19" viewBox="0 0 15 19" fill="none" xmlns="http://www.w3.org/2000/svg">
<path d="M12.4219 5.5625H8.15625V11.8531L10.3174 9.69236C10.4414 9.57449 10.6066 9.50974 10.7778 9.51193C10.9489 9.51412 11.1124 9.58308 11.2334 9.70409C11.3544 9.82511 11.4234 9.9886 11.4256 10.1597C11.4278 10.3309 11.363 10.4961 11.2451 10.6201L7.96389 13.9014C7.84083 14.0244 7.67397 14.0934 7.5 14.0934C7.32603 14.0934 7.15917 14.0244 7.03611 13.9014L3.75486 10.6201C3.63699 10.4961 3.57224 10.3309 3.57443 10.1597C3.57663 9.9886 3.64558 9.82511 3.76659 9.70409C3.88761 9.58308 4.0511 9.51412 4.22223 9.51193C4.39335 9.50974 4.55856 9.57449 4.68264 9.69236L6.84375 11.8531V5.5625H2.57812C1.96916 5.56315 1.38532 5.80535 0.954709 6.23596C0.524102 6.66656 0.281901 7.25041 0.28125 7.85938V16.3906C0.281901 16.9996 0.524102 17.5834 0.954709 18.014C1.38532 18.4446 1.96916 18.6868 2.57812 18.6875H12.4219C13.0308 18.6868 13.6147 18.4446 14.0453 18.014C14.4759 17.5834 14.7181 16.9996 14.7188 16.3906V7.85938C14.7181 7.25041 14.4759 6.66656 14.0453 6.23596C13.6147 5.80535 13.0308 5.56315 12.4219 5.5625ZM8.15625 0.96875C8.15625 0.794702 8.08711 0.627782 7.96404 0.504711C7.84097 0.38164 7.67405 0.3125 7.5 0.3125C7.32595 0.3125 7.15903 0.38164 7.03596 0.504711C6.91289 0.627782 6.84375 0.794702 6.84375 0.96875V5.5625H8.15625V0.96875Z" fill="white"/>
</svg>
