<svg width="22" height="24" viewBox="0 0 22 24" fill="none" xmlns="http://www.w3.org/2000/svg">
<path d="M20.5585 16.5702C20.4678 16.463 20.3788 16.3559 20.2913 16.2525C19.0892 14.827 18.3619 13.9666 18.3619 9.93107C18.3619 7.84179 17.8521 6.1275 16.8473 4.84179C16.1063 3.89196 15.1048 3.17143 13.7846 2.63893C13.7676 2.62966 13.7525 2.61751 13.7398 2.60304C13.265 1.04411 11.9656 0 10.5001 0C9.03465 0 7.73583 1.04411 7.26099 2.60143C7.24832 2.61537 7.23336 2.62714 7.21673 2.63625C4.13605 3.87964 2.63888 6.26518 2.63888 9.92946C2.63888 13.9666 1.91269 14.827 0.709488 16.2509C0.622062 16.3543 0.532996 16.4593 0.442291 16.5686C0.207989 16.8456 0.0595399 17.1826 0.0145112 17.5398C-0.0305175 17.897 0.0297595 18.2593 0.188209 18.5839C0.525346 19.2804 1.24388 19.7127 2.06405 19.7127H18.9422C19.7586 19.7127 20.4722 19.2809 20.8104 18.5877C20.9696 18.263 21.0304 17.9003 20.9858 17.5428C20.9411 17.1852 20.7928 16.8477 20.5585 16.5702ZM10.5001 24C11.2897 23.9994 12.0644 23.7892 12.7421 23.3919C13.4197 22.9945 13.975 22.4248 14.3491 21.743C14.3667 21.7104 14.3754 21.6738 14.3743 21.6368C14.3733 21.5999 14.3625 21.5638 14.343 21.5322C14.3236 21.5005 14.2961 21.4744 14.2632 21.4562C14.2304 21.4381 14.1933 21.4285 14.1556 21.4286H6.84572C6.80797 21.4284 6.77084 21.4379 6.73793 21.456C6.70502 21.4741 6.67746 21.5003 6.65793 21.532C6.63839 21.5636 6.62756 21.5997 6.62647 21.6367C6.62539 21.6737 6.6341 21.7103 6.65174 21.743C7.02578 22.4247 7.581 22.9944 8.25853 23.3917C8.93606 23.7891 9.71064 23.9993 10.5001 24Z" fill="white"/>
<circle cx="18" cy="11" r="4" fill="#DF0C00"/>
</svg>
