<svg width="12" height="12" viewBox="0 0 12 12" fill="none" xmlns="http://www.w3.org/2000/svg">
<path d="M8.75857 2.59347L1.44328 9.92687L1 11L2.07311 10.5567L9.40642 3.24132L8.75857 2.59347ZM10.2223 1.13001L9.90534 1.44668L10.5532 2.09454L10.8701 1.7776C10.9533 1.69437 11 1.58154 11 1.46388C11 1.34623 10.9533 1.23339 10.8701 1.15017L10.85 1.13001C10.8088 1.08879 10.7598 1.0561 10.706 1.03379C10.6521 1.01148 10.5944 1 10.5361 1C10.4778 1 10.4201 1.01148 10.3663 1.03379C10.3124 1.0561 10.2635 1.08879 10.2223 1.13001Z" stroke="#B2241C" stroke-linecap="round" stroke-linejoin="round"/>
</svg>
