<svg width="25" height="25" viewBox="0 0 25 25" fill="none" xmlns="http://www.w3.org/2000/svg">
<path d="M12.5 0C5.60757 0 0 5.60757 0 12.5C0 19.3924 5.60757 25 12.5 25C19.3924 25 25 19.3924 25 12.5C25 5.60757 19.3924 0 12.5 0ZM12.6202 5.76923C13.476 5.76923 14.3125 6.023 15.0241 6.49845C15.7357 6.9739 16.2903 7.64967 16.6177 8.44031C16.9452 9.23095 17.0309 10.101 16.864 10.9403C16.697 11.7796 16.2849 12.5506 15.6798 13.1557C15.0747 13.7609 14.3037 14.173 13.4643 14.3399C12.625 14.5069 11.755 14.4212 10.9643 14.0937C10.1737 13.7662 9.49794 13.2116 9.02249 12.5001C8.54704 11.7885 8.29327 10.9519 8.29327 10.0962C8.29327 8.94858 8.74914 7.84801 9.5606 7.03656C10.3721 6.2251 11.4726 5.76923 12.6202 5.76923ZM12.5 23.0769C11.0411 23.0775 9.59801 22.7756 8.26178 22.1901C6.92556 21.6046 5.72528 20.7484 4.73678 19.6755C5.26803 16.9243 10.0397 16.3462 12.5 16.3462C14.9603 16.3462 19.732 16.9243 20.2632 19.6749C19.2748 20.748 18.0746 21.6044 16.7384 22.19C15.4021 22.7755 13.9589 23.0776 12.5 23.0769Z" fill="white"/>
</svg>
