<svg width="115" height="15" viewBox="0 0 115 15" fill="none" xmlns="http://www.w3.org/2000/svg">
<path d="M11.846 0.843999L7.49 14H4.784L0.45 0.843999H2.914L6.148 11.03L9.404 0.843999H11.846ZM23.4276 14H20.5896L16.0356 8.5H15.7936V14H13.4836V0.843999H15.7936V6.322H16.0136C16.5416 5.706 17.3116 4.782 18.3236 3.55C19.3356 2.318 20.0836 1.416 20.5676 0.843999H23.4056L17.9276 7.4C18.1623 7.67867 18.9763 8.66133 20.3696 10.348C21.7776 12.0347 22.797 13.252 23.4276 14ZM35.705 14H33.241L32.273 11.206H27.279L26.311 14H23.847L28.445 0.843999H31.129L35.705 14ZM31.547 9.006L29.787 3.814L28.005 9.006H31.547ZM46.7452 11.448C46.5986 11.7853 46.4446 12.064 46.2832 12.284C45.3739 13.5013 44.4426 14.11 43.4892 14.11H40.7392C40.2552 14.11 39.8006 13.978 39.3752 13.714C39.1552 13.582 38.8692 13.34 38.5172 12.988C38.1652 12.636 37.9159 12.3573 37.7692 12.152C37.5346 11.8 37.4172 11.382 37.4172 10.898V3.968C37.4172 3.49867 37.5346 3.088 37.7692 2.736C37.9159 2.516 38.1652 2.23 38.5172 1.878C38.8839 1.51133 39.1699 1.26933 39.3752 1.152C39.8446 0.887999 40.2992 0.755999 40.7392 0.755999H43.4892C44.4279 0.755999 45.3592 1.36467 46.2832 2.582C46.3712 2.69933 46.5252 2.956 46.7452 3.352L44.5012 3.99C44.0612 3.44733 43.7312 3.11 43.5112 2.978C43.4966 2.96333 43.4672 2.956 43.4232 2.956H40.8272L40.7392 2.978C40.3579 3.18333 40.0279 3.506 39.7492 3.946C39.7346 3.97533 39.7272 4.056 39.7272 4.188V10.876C39.7272 10.9933 39.8446 11.1693 40.0792 11.404C40.3286 11.624 40.5486 11.7853 40.7392 11.888C40.7539 11.9027 40.8052 11.91 40.8932 11.91H43.4012C43.4452 11.91 43.4819 11.9027 43.5112 11.888C43.6432 11.8293 43.7899 11.712 43.9512 11.536C44.1272 11.36 44.2666 11.1987 44.3692 11.052L44.5012 10.854L46.7452 11.448ZM58.3114 3.044H54.7474V14H52.4374V3.044H48.8734V0.843999H58.3114V3.044ZM68.9133 3.044H62.9733V6.366H68.5173V8.566H62.9733V14H60.6633V0.843999H68.9133V3.044ZM77.2324 2.978H75.0104C74.9517 2.978 74.9077 2.98533 74.8784 3C74.3504 3.308 73.9984 3.68933 73.8224 4.144L71.6224 3.484C71.7544 3.132 71.9084 2.83867 72.0844 2.604C73.0231 1.38667 73.9691 0.778 74.9224 0.778H77.2544C77.8264 0.778 78.3397 0.946666 78.7944 1.284C78.9557 1.38667 79.1684 1.57733 79.4324 1.856C79.7111 2.12 79.9017 2.32533 80.0044 2.472C80.2684 2.868 80.4004 3.31533 80.4004 3.814V5.222C80.4004 6.24867 79.8577 7.04067 78.7724 7.598L74.4384 9.842C74.2037 9.974 74.0864 10.128 74.0864 10.304V11.8H80.2464V14H71.7764V10.216C71.7764 9.21867 72.3264 8.434 73.4264 7.862L77.8044 5.596C77.9951 5.508 78.0904 5.36133 78.0904 5.156V3.814L78.0684 3.704C77.9657 3.528 77.8264 3.36667 77.6504 3.22C77.4744 3.05867 77.3351 2.978 77.2324 2.978ZM91.8966 10.876C91.8966 11.36 91.7793 11.778 91.5446 12.13C91.3833 12.35 91.1266 12.6433 90.7746 13.01C90.4373 13.362 90.1586 13.5967 89.9386 13.714C89.5133 13.978 89.0659 14.11 88.5966 14.11H86.1546C85.6706 14.11 85.2159 13.978 84.7906 13.714C84.5853 13.5967 84.2993 13.362 83.9326 13.01C83.5806 12.6433 83.3313 12.35 83.1846 12.13C82.9499 11.778 82.8326 11.36 82.8326 10.876V3.99C82.8326 3.506 82.9499 3.088 83.1846 2.736C83.3313 2.516 83.5806 2.23 83.9326 1.878C84.2993 1.51133 84.5853 1.26933 84.7906 1.152C85.2159 0.887999 85.6706 0.755999 86.1546 0.755999H88.5966C89.0659 0.755999 89.5133 0.887999 89.9386 1.152C90.1586 1.26933 90.4373 1.51133 90.7746 1.878C91.1266 2.23 91.3833 2.516 91.5446 2.736C91.7793 3.088 91.8966 3.506 91.8966 3.99V10.876ZM85.1426 4.034V10.854C85.1426 10.898 85.1499 10.9273 85.1646 10.942C85.4726 11.3967 85.7953 11.712 86.1326 11.888C86.1619 11.9027 86.1986 11.91 86.2426 11.91H88.5086C88.5526 11.91 88.5893 11.9027 88.6186 11.888C88.9559 11.712 89.2713 11.3967 89.5646 10.942L89.5866 10.854V4.034C89.5866 3.97533 89.5793 3.93867 89.5646 3.924C89.2713 3.46933 88.9559 3.154 88.6186 2.978C88.5893 2.96333 88.5526 2.956 88.5086 2.956H86.2426C86.1839 2.956 86.1473 2.96333 86.1326 2.978C85.7953 3.13933 85.4726 3.45467 85.1646 3.924L85.1426 4.034ZM100.049 2.978H97.8268C97.7681 2.978 97.7241 2.98533 97.6948 3C97.1668 3.308 96.8148 3.68933 96.6388 4.144L94.4388 3.484C94.5708 3.132 94.7248 2.83867 94.9008 2.604C95.8395 1.38667 96.7855 0.778 97.7388 0.778H100.071C100.643 0.778 101.156 0.946666 101.611 1.284C101.772 1.38667 101.985 1.57733 102.249 1.856C102.527 2.12 102.718 2.32533 102.821 2.472C103.085 2.868 103.217 3.31533 103.217 3.814V5.222C103.217 6.24867 102.674 7.04067 101.589 7.598L97.2548 9.842C97.0201 9.974 96.9028 10.128 96.9028 10.304V11.8H103.063V14H94.5928V10.216C94.5928 9.21867 95.1428 8.434 96.2428 7.862L100.621 5.596C100.811 5.508 100.907 5.36133 100.907 5.156V3.814L100.885 3.704C100.782 3.528 100.643 3.36667 100.467 3.22C100.291 3.05867 100.151 2.978 100.049 2.978ZM114.449 11.074C114.449 11.5727 114.317 12.02 114.053 12.416C113.95 12.5773 113.767 12.7973 113.503 13.076C113.239 13.34 113.026 13.5233 112.865 13.626C112.425 13.9487 111.904 14.11 111.303 14.11H108.883C107.93 14.11 106.984 13.5087 106.045 12.306C105.84 12.0273 105.671 11.712 105.539 11.36L107.783 10.766C108.076 11.3233 108.414 11.6973 108.795 11.888C108.824 11.9027 108.876 11.91 108.949 11.91H111.281C111.34 11.91 111.384 11.9027 111.413 11.888C111.706 11.6973 111.941 11.4553 112.117 11.162C112.132 11.1327 112.139 11.096 112.139 11.052V8.83L112.117 8.72C111.956 8.412 111.721 8.16267 111.413 7.972C111.384 7.95733 111.34 7.95 111.281 7.95H106.089V0.843999H113.811V3.044H108.399V5.75H111.303C111.904 5.75 112.425 5.926 112.865 6.278C113.026 6.38067 113.239 6.564 113.503 6.828C113.767 7.07733 113.95 7.27533 114.053 7.422C114.317 7.818 114.449 8.27267 114.449 8.786V11.074Z" fill="#B2241C"/>
</svg>
