<svg width="31" height="26" viewBox="0 0 31 26" fill="none" xmlns="http://www.w3.org/2000/svg">
<path d="M8.16681 13C8.16681 12.6866 8.28973 12.386 8.50853 12.1643C8.72732 11.9427 9.02407 11.8182 9.3335 11.8182H19.8337V4.13636C19.8337 1.77273 17.3698 0 15.1669 0H4.08341C3.00077 0.00117312 1.96282 0.437344 1.19728 1.21281C0.431745 1.98827 0.0011581 3.03969 0 4.13636V21.8636C0.0011581 22.9603 0.431745 24.0117 1.19728 24.7872C1.96282 25.5627 3.00077 25.9988 4.08341 26H15.7503C16.8329 25.9988 17.8709 25.5627 18.6364 24.7872C19.4019 24.0117 19.8325 22.9603 19.8337 21.8636V14.1818H9.3335C9.02407 14.1818 8.72732 14.0573 8.50853 13.8357C8.28973 13.614 8.16681 13.3134 8.16681 13ZM29.9919 12.1646L24.1584 6.25551C23.9379 6.04323 23.6442 5.92664 23.3399 5.93058C23.0357 5.93453 22.745 6.0587 22.5299 6.27663C22.3148 6.49456 22.1922 6.789 22.1883 7.09717C22.1844 7.40535 22.2995 7.70287 22.509 7.92631L26.3504 11.8182H19.8337V14.1818H26.3504L22.509 18.0737C22.3961 18.1823 22.3059 18.3128 22.2435 18.4573C22.1812 18.6019 22.148 18.7576 22.146 18.9154C22.144 19.0731 22.1732 19.2296 22.2319 19.3757C22.2906 19.5219 22.3775 19.6546 22.4877 19.7662C22.5978 19.8777 22.7288 19.9658 22.8731 20.0252C23.0173 20.0846 23.1719 20.1142 23.3276 20.1122C23.4833 20.1102 23.637 20.0766 23.7797 20.0135C23.9224 19.9503 24.0512 19.8588 24.1584 19.7445L29.9919 13.8354C30.2105 13.6138 30.3333 13.3133 30.3333 13C30.3333 12.6867 30.2105 12.3862 29.9919 12.1646Z" fill="white"/>
</svg>
