<svg width="25" height="31" viewBox="0 0 25 31" fill="none" xmlns="http://www.w3.org/2000/svg">
<path d="M15.2778 19.7273C15.2778 18.9493 15.0065 18.2852 14.464 17.7347C13.9214 17.1843 13.2668 16.9091 12.5 16.9091C11.7332 16.9091 11.0786 17.1843 10.536 17.7347C9.99349 18.2852 9.72222 18.9493 9.72222 19.7273C9.72222 20.2704 9.85966 20.7621 10.1345 21.2024C10.4094 21.6428 10.7784 21.9877 11.2413 22.2372L9.74392 27.2791C9.67159 27.4993 9.70775 27.7048 9.85243 27.8956C9.99711 28.0864 10.1852 28.1818 10.4167 28.1818H14.5833C14.8148 28.1818 15.0029 28.0864 15.1476 27.8956C15.2922 27.7048 15.3284 27.4993 15.2561 27.2791L13.7587 22.2372C14.2216 21.9877 14.5906 21.6428 14.8655 21.2024C15.1403 20.7621 15.2778 20.2704 15.2778 19.7273ZM6.94444 14.0909H18.0556V9.86364C18.0556 8.30777 17.513 6.9794 16.4279 5.87855C15.3429 4.7777 14.0336 4.22727 12.5 4.22727C10.9664 4.22727 9.65712 4.7777 8.57205 5.87855C7.48698 6.9794 6.94444 8.30777 6.94444 9.86364V14.0909ZM25 16.2045V28.8864C25 29.4735 24.7975 29.9725 24.3924 30.3835C23.9873 30.7945 23.4954 31 22.9167 31H2.08333C1.50463 31 1.01273 30.7945 0.607639 30.3835C0.202546 29.9725 0 29.4735 0 28.8864V16.2045C0 15.6174 0.202546 15.1184 0.607639 14.7074C1.01273 14.2964 1.50463 14.0909 2.08333 14.0909H2.77778V9.86364C2.77778 7.16288 3.73264 4.84375 5.64236 2.90625C7.55208 0.96875 9.83796 0 12.5 0C15.162 0 17.4479 0.96875 19.3576 2.90625C21.2674 4.84375 22.2222 7.16288 22.2222 9.86364V14.0909H22.9167C23.4954 14.0909 23.9873 14.2964 24.3924 14.7074C24.7975 15.1184 25 15.6174 25 16.2045Z" fill="white"/>
</svg>
