<svg width="9" height="23" viewBox="0 0 9 23" fill="none" xmlns="http://www.w3.org/2000/svg">
<path d="M4.5 0C3.30682 0.00098765 2.16277 0.495466 1.31907 1.37486C0.475358 2.25426 0.000947566 3.4467 0 4.69036V11.0893H9V4.69036C8.99905 3.4467 8.52464 2.25426 7.68093 1.37486C6.83723 0.495466 5.69318 0.00098765 4.5 0ZM4.5 3.19536C4.02461 3.19576 3.5688 3.39278 3.23265 3.74315C2.8965 4.09352 2.70748 4.56861 2.70709 5.06411C2.70709 5.17303 2.66558 5.2775 2.59168 5.35453C2.51778 5.43155 2.41756 5.47482 2.31305 5.47482C2.20854 5.47482 2.10831 5.43155 2.03442 5.35453C1.96052 5.2775 1.919 5.17303 1.919 5.06411C1.92 4.35095 2.19225 3.66729 2.67606 3.16301C3.15988 2.65873 3.81578 2.37497 4.5 2.37393C4.60451 2.37393 4.70473 2.4172 4.77863 2.49422C4.85253 2.57125 4.89405 2.67571 4.89405 2.78464C4.89405 2.89357 4.85253 2.99804 4.77863 3.07506C4.70473 3.15209 4.60451 3.19536 4.5 3.19536Z" fill="white"/>
<path d="M0 11.9109V18.3098C0 19.5538 0.474106 20.7468 1.31802 21.6264C2.16193 22.506 3.30653 23.0002 4.5 23.0002C5.69347 23.0002 6.83807 22.506 7.68198 21.6264C8.5259 20.7468 9 19.5538 9 18.3098V11.9109H0ZM4.5 19.8048C4.97539 19.8044 5.4312 19.6074 5.76735 19.257C6.10351 18.9067 6.29252 18.4316 6.29291 17.9361C6.29291 17.8271 6.33442 17.7227 6.40832 17.6456C6.48222 17.5686 6.58245 17.5254 6.68695 17.5254C6.79146 17.5254 6.89169 17.5686 6.96559 17.6456C7.03948 17.7227 7.081 17.8271 7.081 17.9361C7.08 18.6492 6.80775 19.3329 6.32394 19.8372C5.84012 20.3414 5.18422 20.6252 4.5 20.6262C4.39549 20.6262 4.29527 20.583 4.22137 20.5059C4.14747 20.4289 4.10595 20.3245 4.10595 20.2155C4.10595 20.1066 4.14747 20.0021 4.22137 19.9251C4.29527 19.8481 4.39549 19.8048 4.5 19.8048Z" fill="white"/>
</svg>
