<svg width="34" height="25" viewBox="0 0 34 25" fill="none" xmlns="http://www.w3.org/2000/svg">
<path d="M20.8639 7.03125C20.8639 5.99525 20.4569 5.00168 19.7323 4.26911C19.0077 3.53655 18.025 3.125 17.0003 3.125C15.9756 3.125 14.9929 3.53655 14.2683 4.26911C13.5438 5.00168 13.1367 5.99525 13.1367 7.03125V8.59375C13.1367 9.62975 13.5438 10.6233 14.2683 11.3559C14.9929 12.0884 15.9756 12.5 17.0003 12.5C18.025 12.5 19.0077 12.0884 19.7323 11.3559C20.4569 10.6233 20.8639 9.62975 20.8639 8.59375V7.03125Z" fill="white"/>
<path d="M9.27344 21.0938V24.2188C9.27344 24.426 9.35485 24.6247 9.49976 24.7712C9.64468 24.9177 9.84122 25 10.0462 25H23.9551C24.1601 25 24.3566 24.9177 24.5015 24.7712C24.6464 24.6247 24.7278 24.426 24.7278 24.2188V21.0938C24.7258 19.2296 23.9924 17.4424 22.6887 16.1242C21.3849 14.806 19.6172 14.0646 17.7734 14.0625H16.2279C14.3841 14.0646 12.6164 14.806 11.3126 16.1242C10.0088 17.4424 9.27548 19.2296 9.27344 21.0938Z" fill="white"/>
<path d="M7.72688 9.375C8.7512 9.37376 9.73321 8.96181 10.4575 8.22952C11.1818 7.49722 11.5893 6.50437 11.5905 5.46875V3.90625C11.5905 2.87025 11.1834 1.87668 10.4589 1.14411C9.7343 0.41155 8.75157 0 7.72688 0C6.70219 0 5.71947 0.41155 4.9949 1.14411C4.27034 1.87668 3.86328 2.87025 3.86328 3.90625V5.46875C3.86451 6.50437 4.27196 7.49722 4.99626 8.22952C5.72056 8.96181 6.70257 9.37376 7.72688 9.375Z" fill="white"/>
<path d="M7.7272 21.0938C7.72749 19.315 8.27407 17.5802 9.29143 16.1289C10.3088 14.6777 11.7468 13.5817 13.4067 12.9922C12.1052 11.6767 10.3403 10.9376 8.49992 10.9375H6.95448C5.11092 10.9404 3.34368 11.6821 2.04008 13.0001C0.736482 14.3181 0.0028611 16.1048 0 17.9688V21.0938C0 21.301 0.0814113 21.4997 0.226325 21.6462C0.371238 21.7927 0.567782 21.875 0.77272 21.875H7.7272V21.0938Z" fill="white"/>
<path d="M26.2738 9.375C27.2981 9.37376 28.2801 8.96181 29.0044 8.22952C29.7287 7.49722 30.1361 6.50437 30.1374 5.46875V3.90625C30.1374 2.87025 29.7303 1.87668 29.0057 1.14411C28.2812 0.41155 27.2984 0 26.2738 0C25.2491 0 24.2663 0.41155 23.5418 1.14411C22.8172 1.87668 22.4102 2.87025 22.4102 3.90625V5.46875C22.4114 6.50437 22.8188 7.49722 23.5431 8.22952C24.2674 8.96181 25.2494 9.37376 26.2738 9.375Z" fill="white"/>
<path d="M27.046 10.9375H25.5005C23.6602 10.9376 21.8952 11.6767 20.5938 12.9922C22.2537 13.5817 23.6917 14.6777 24.709 16.1289C25.7264 17.5802 26.273 19.315 26.2732 21.0938V21.875H33.2277C33.4327 21.875 33.6292 21.7927 33.7741 21.6462C33.919 21.4997 34.0004 21.301 34.0004 21.0938V17.9688C33.9976 16.1048 33.264 14.3181 31.9604 13.0001C30.6568 11.6821 28.8895 10.9404 27.046 10.9375Z" fill="white"/>
</svg>
