<svg width="25" height="21" viewBox="0 0 25 21" fill="none" xmlns="http://www.w3.org/2000/svg">
<path d="M10.4167 7.7784L13.5031 10.5L10.4167 13.2216V11.55H2.08333V9.45H10.4167V7.7784ZM8.33333 3.15V7.35H0V13.65H8.33333V17.85L16.6667 10.5L8.33333 3.15ZM14.5833 0C12.7219 0 10.9792 0.4977 9.46771 1.35975L9.70521 1.56975L11.1594 2.8518C12.2052 2.373 13.3615 2.1 14.5833 2.1C19.1781 2.1 22.9167 5.86845 22.9167 10.5C22.9167 15.1315 19.1781 18.9 14.5833 18.9C13.3615 18.9 12.2052 18.627 11.1583 18.1492L9.70417 19.4313L9.46667 19.6413C10.9792 20.5023 12.7219 21 14.5833 21C20.3354 21 25 16.2991 25 10.5C25 4.70085 20.3354 0 14.5833 0Z" fill="#009955"/>
</svg>
