<svg width="35" height="35" viewBox="0 0 35 35" fill="none" xmlns="http://www.w3.org/2000/svg">
<path d="M17.5 35C27.165 35 35 27.165 35 17.5C35 7.83502 27.165 0 17.5 0C7.83502 0 0 7.83502 0 17.5C0 27.165 7.83502 35 17.5 35Z" fill="#009955"/>
<path d="M14.2917 25.5208C13.7247 25.5208 13.8211 25.3068 13.6255 24.7669L11.9584 19.2802L24.7917 11.6667" fill="#C8DAEA"/>
<path d="M14.2916 25.5208C14.7291 25.5208 14.9224 25.3208 15.1666 25.0833L17.5 22.8145L14.5894 21.0594" fill="#A9C9DD"/>
<path d="M14.5891 21.0598L21.6416 26.2703C22.4465 26.7143 23.0272 26.4844 23.2277 25.5232L26.0984 11.9952C26.3923 10.8169 25.6492 10.2823 24.8792 10.6318L8.02238 17.1318C6.87175 17.5933 6.87861 18.2353 7.81267 18.5213L12.1385 19.8715L22.1533 13.5533C22.6261 13.2666 23.0601 13.4206 22.704 13.7368" fill="url(#paint0_linear_102_314)"/>
<defs>
<linearGradient id="paint0_linear_102_314" x1="19.6938" y1="17.5014" x2="22.4249" y2="23.7239" gradientUnits="userSpaceOnUse">
<stop stop-color="#EFF7FC"/>
<stop offset="1" stop-color="white"/>
</linearGradient>
</defs>
</svg>
