<svg width="326" height="377" viewBox="0 0 326 377" fill="none" xmlns="http://www.w3.org/2000/svg">
<path d="M139.513 77.7711C139.513 51.2151 144.68 26.0818 153.605 2.37107L52.1412 61.6478C51.6715 66.8642 51.6715 72.0805 51.6715 77.7711C51.6715 195.376 119.784 296.858 217.96 345.228L321.772 284.528C219.369 272.199 139.513 183.995 139.513 77.7711ZM255.069 50.7409C252.72 59.2767 251.311 68.2868 251.311 77.7711C251.311 123.77 283.254 162.181 326 171.191V91.9975L255.069 50.7409ZM232.522 77.7711C232.522 64.9673 234.401 52.6377 238.628 41.2566L167.697 0C157.363 23.7107 151.726 50.2667 151.726 77.7711C151.726 179.253 228.294 263.189 326 273.147V190.634C272.919 180.675 232.522 133.728 232.522 77.7711ZM46.9741 77.7711C46.9741 73.5032 46.9741 68.761 47.4438 64.4931L0 91.9975V282.157L163 377L213.262 347.599C114.617 298.281 46.9741 195.85 46.9741 77.7711Z" fill="white"/>
<path d="M139.513 77.7711C139.513 51.2151 144.68 26.0818 153.605 2.37107L52.1412 61.6478C51.6715 66.8642 51.6715 72.0805 51.6715 77.7711C51.6715 195.376 119.784 296.858 217.96 345.228L321.772 284.528C219.369 272.199 139.513 183.995 139.513 77.7711ZM255.069 50.7409C252.72 59.2767 251.311 68.2868 251.311 77.7711C251.311 123.77 283.254 162.181 326 171.191V91.9975L255.069 50.7409ZM232.522 77.7711C232.522 64.9673 234.401 52.6377 238.628 41.2566L167.697 0C157.363 23.7107 151.726 50.2667 151.726 77.7711C151.726 179.253 228.294 263.189 326 273.147V190.634C272.919 180.675 232.522 133.728 232.522 77.7711ZM46.9741 77.7711C46.9741 73.5032 46.9741 68.761 47.4438 64.4931L0 91.9975V282.157L163 377L213.262 347.599C114.617 298.281 46.9741 195.85 46.9741 77.7711Z" fill="url(#paint0_linear_676_303)"/>
<defs>
<linearGradient id="paint0_linear_676_303" x1="163" y1="337.429" x2="163" y2="-14.3893" gradientUnits="userSpaceOnUse">
<stop stop-color="#195C62"/>
<stop offset="1" stop-color="#87C18F"/>
</linearGradient>
</defs>
</svg>
