<svg width="26" height="25" viewBox="0 0 26 25" fill="none" xmlns="http://www.w3.org/2000/svg">
<path d="M14.7333 12.4999C17.5928 12.4999 20.1191 9.72594 20.3666 6.3158C20.4896 4.60265 19.968 3.005 18.8976 1.81807C17.8387 0.645643 16.3583 0 14.7333 0C13.0953 0 11.6139 0.641736 10.5625 1.80691C9.49919 2.98491 8.98082 4.58591 9.09999 6.31469C9.34319 9.72538 11.869 12.4999 14.7333 12.4999ZM25.9664 22.7543C25.5092 20.1416 24.0819 17.9469 21.8394 16.4067C19.8477 15.039 17.3241 14.2856 14.7333 14.2856C12.1425 14.2856 9.6189 15.039 7.6272 16.4061C5.3847 17.9463 3.95741 20.141 3.50024 22.7537C3.3957 23.3525 3.53762 23.9446 3.8897 24.3782C4.0494 24.5758 4.24991 24.7341 4.4766 24.8417C4.70329 24.9492 4.95044 25.0033 5.19999 24.9998H24.2666C24.5163 25.0035 24.7637 24.9496 24.9905 24.8422C25.2174 24.7347 25.4181 24.5764 25.578 24.3787C25.929 23.9451 26.0709 23.3531 25.9664 22.7543ZM4.76666 14.2856V12.0535H6.93332C7.16318 12.0535 7.38362 11.9594 7.54615 11.792C7.70868 11.6245 7.79999 11.3974 7.79999 11.1606C7.79999 10.9238 7.70868 10.6967 7.54615 10.5293C7.38362 10.3619 7.16318 10.2678 6.93332 10.2678H4.76666V8.03566C4.76666 7.79886 4.67535 7.57176 4.51282 7.40432C4.35029 7.23688 4.12985 7.14281 3.89999 7.14281C3.67014 7.14281 3.4497 7.23688 3.28717 7.40432C3.12464 7.57176 3.03333 7.79886 3.03333 8.03566V10.2678H0.866665C0.636811 10.2678 0.416372 10.3619 0.25384 10.5293C0.0913091 10.6967 0 10.9238 0 11.1606C0 11.3974 0.0913091 11.6245 0.25384 11.792C0.416372 11.9594 0.636811 12.0535 0.866665 12.0535H3.03333V14.2856C3.03333 14.5224 3.12464 14.7495 3.28717 14.917C3.4497 15.0844 3.67014 15.1785 3.89999 15.1785C4.12985 15.1785 4.35029 15.0844 4.51282 14.917C4.67535 14.7495 4.76666 14.5224 4.76666 14.2856Z" fill="white"/>
</svg>
