<svg width="22" height="25" viewBox="0 0 22 25" fill="none" xmlns="http://www.w3.org/2000/svg">
<path d="M13.1412 1.78567H8.67693C8.61811 1.785 8.55976 1.79609 8.50529 1.81828C8.45083 1.84048 8.40134 1.87334 8.35975 1.91493C8.31816 1.95652 8.28531 2.006 8.26311 2.06047C8.24091 2.11494 8.22982 2.17329 8.2305 2.2321V3.57139H13.5877V2.2321C13.5883 2.17329 13.5772 2.11494 13.555 2.06047C13.5329 2.006 13.5 1.95652 13.4584 1.91493C13.4168 1.87334 13.3673 1.84048 13.3129 1.81828C13.2584 1.79609 13.2 1.785 13.1412 1.78567Z" fill="white"/>
<path d="M20.7311 3.57144H15.3739V2.23215C15.3739 1.64015 15.1388 1.07239 14.7202 0.653782C14.3015 0.235172 13.7338 0 13.1418 0H8.67748C8.08548 0 7.51772 0.235172 7.09911 0.653782C6.68051 1.07239 6.44533 1.64015 6.44533 2.23215V3.57144H1.08817C0.851371 3.57144 0.624269 3.66551 0.456825 3.83295C0.289382 4.0004 0.195313 4.2275 0.195312 4.4643C0.195313 4.7011 0.289382 4.9282 0.456825 5.09565C0.624269 5.26309 0.851371 5.35716 1.08817 5.35716H2.03684L3.09711 22.3728C3.17635 23.8712 4.32479 25.0001 5.77569 25.0001H16.0436C17.5017 25.0001 18.6273 23.8963 18.7222 22.3773L19.7824 5.35716H20.7311C20.9679 5.35716 21.195 5.26309 21.3624 5.09565C21.5299 4.9282 21.624 4.7011 21.624 4.4643C21.624 4.2275 21.5299 4.0004 21.3624 3.83295C21.195 3.66551 20.9679 3.57144 20.7311 3.57144ZM7.37 21.4286H7.33819C7.1068 21.4288 6.88439 21.3391 6.71783 21.1785C6.55127 21.0178 6.45358 20.7988 6.44533 20.5676L5.9989 8.06755C5.99047 7.83075 6.07645 7.60029 6.23792 7.42689C6.3994 7.25348 6.62315 7.15132 6.85995 7.14288C7.09676 7.13444 7.32721 7.22042 7.50062 7.3819C7.67403 7.54338 7.77619 7.76713 7.78462 8.00393L8.23105 20.504C8.23531 20.6212 8.2164 20.7382 8.17542 20.8482C8.13443 20.9581 8.07217 21.0589 7.9922 21.1448C7.91223 21.2307 7.81612 21.2999 7.70936 21.3487C7.60259 21.3974 7.48728 21.4245 7.37 21.4286ZM11.8025 20.5358C11.8025 20.7726 11.7084 20.9997 11.541 21.1671C11.3735 21.3346 11.1464 21.4286 10.9096 21.4286C10.6728 21.4286 10.4457 21.3346 10.2783 21.1671C10.1108 20.9997 10.0168 20.7726 10.0168 20.5358V8.03574C10.0168 7.79894 10.1108 7.57184 10.2783 7.40439C10.4457 7.23695 10.6728 7.14288 10.9096 7.14288C11.1464 7.14288 11.3735 7.23695 11.541 7.40439C11.7084 7.57184 11.8025 7.79894 11.8025 8.03574V20.5358ZM13.5882 3.57144H8.23105V2.23215C8.23038 2.17334 8.24147 2.11498 8.26367 2.06052C8.28586 2.00605 8.31872 1.95657 8.36031 1.91498C8.4019 1.87339 8.45138 1.84053 8.50585 1.81833C8.56032 1.79613 8.61867 1.78505 8.67748 1.78572H13.1418C13.2006 1.78505 13.259 1.79613 13.3134 1.81833C13.3679 1.84053 13.4174 1.87339 13.459 1.91498C13.5005 1.95657 13.5334 2.00605 13.5556 2.06052C13.5778 2.11498 13.5889 2.17334 13.5882 2.23215V3.57144ZM15.3739 20.5676C15.3657 20.7988 15.268 21.0178 15.1014 21.1785C14.9349 21.3391 14.7125 21.4288 14.4811 21.4286H14.4487C14.3315 21.4245 14.2162 21.3972 14.1095 21.3485C14.0028 21.2998 13.9068 21.2305 13.8269 21.1446C13.747 21.0587 13.6847 20.958 13.6438 20.848C13.6028 20.7381 13.584 20.6212 13.5882 20.504L14.0346 8.00393C14.0388 7.88668 14.0661 7.7714 14.1148 7.66467C14.1635 7.55794 14.2328 7.46186 14.3186 7.3819C14.4045 7.30195 14.5053 7.23969 14.6152 7.19867C14.7251 7.15766 14.8421 7.1387 14.9593 7.14288C15.0766 7.14706 15.1918 7.17429 15.2986 7.22302C15.4053 7.27175 15.5014 7.34102 15.5813 7.42689C15.6613 7.51275 15.7236 7.61352 15.7646 7.72344C15.8056 7.83337 15.8245 7.9503 15.8204 8.06755L15.3739 20.5676Z" fill="white"/>
</svg>
