<svg width="28" height="27" viewBox="0 0 28 27" fill="none" xmlns="http://www.w3.org/2000/svg">
<circle cx="14.0977" cy="13.5" r="13.5" fill="white"/>
<path d="M10.7193 14.2701L9.38343 12.9342C8.78316 12.334 8.42606 11.5397 8.39068 10.7262C8.35531 9.91262 8.64457 9.14645 9.19482 8.5962C9.74507 8.04595 10.5112 7.7567 11.3248 7.79207C12.1383 7.82744 12.9326 8.18454 13.5329 8.78481L14.8392 10.0912M17.5076 12.7595L18.8139 14.0659C19.4142 14.6662 19.7713 15.4604 19.8067 16.274C19.8421 17.0875 19.5528 17.8537 19.0026 18.4039C18.4523 18.9542 17.6861 19.2434 16.8726 19.2081C16.0591 19.1727 15.2648 18.8156 14.6645 18.2153L13.3287 16.8795M12.0492 11.4506L16.1953 15.5967" stroke="black" stroke-width="1.5" stroke-linecap="round" stroke-linejoin="round"/>
</svg>
