<svg width="25" height="25" viewBox="0 0 25 25" fill="none" xmlns="http://www.w3.org/2000/svg">
<path d="M12.4989 15.109C13.9782 15.109 15.1774 13.941 15.1774 12.5003C15.1774 11.0596 13.9782 9.8916 12.4989 9.8916C11.0195 9.8916 9.82031 11.0596 9.82031 12.5003C9.82031 13.941 11.0195 15.109 12.4989 15.109Z" fill="white"/>
<path d="M24.4637 14.8913L24.4375 14.8707L22.6763 13.5255C22.5648 13.4396 22.4758 13.3291 22.4166 13.2032C22.3574 13.0773 22.3298 12.9395 22.3359 12.8011V12.1728C22.3303 12.0353 22.3583 11.8985 22.4176 11.7736C22.4769 11.6487 22.5657 11.5393 22.6769 11.4543L24.4375 10.1087L24.4637 10.088C24.7352 9.86775 24.9174 9.56058 24.9777 9.22145C25.0381 8.88232 24.9726 8.53336 24.7929 8.23696L22.4096 4.22065C22.4068 4.21686 22.4044 4.21286 22.4023 4.2087C22.2217 3.91639 21.9417 3.69492 21.6109 3.58273C21.2801 3.47055 20.9194 3.47473 20.5915 3.59457L20.572 3.60163L18.5017 4.41304C18.371 4.4645 18.2296 4.48498 18.0892 4.47279C17.9488 4.4606 17.8134 4.41609 17.6942 4.34293C17.5111 4.23062 17.3251 4.12446 17.1361 4.02446C17.0136 3.95974 16.9084 3.86789 16.829 3.75631C16.7496 3.64472 16.6983 3.51653 16.6791 3.38207L16.3672 1.23043L16.3605 1.1913C16.2926 0.858042 16.1089 0.557702 15.8405 0.340757C15.572 0.123813 15.235 0.00348646 14.8861 0H10.1138C9.76008 0.00110246 9.41807 0.123759 9.14806 0.346361C8.87805 0.568963 8.69737 0.877228 8.63784 1.21685L8.63282 1.24728L8.32199 3.40326C8.30293 3.53734 8.25198 3.66523 8.17322 3.77675C8.09446 3.88828 7.99005 3.98035 7.86831 4.04565C7.67877 4.14507 7.49266 4.25057 7.31028 4.36196C7.19123 4.43467 7.05616 4.47883 6.91618 4.49083C6.7762 4.50283 6.63529 4.48232 6.50503 4.43098L4.43305 3.61576L4.41352 3.60815C4.08509 3.48819 3.72388 3.48416 3.39272 3.59677C3.06156 3.70937 2.78142 3.93148 2.60102 4.22446L2.59377 4.23641L0.207058 8.25543C0.0271642 8.55214 -0.0384939 8.90149 0.0218245 9.24102C0.0821429 9.58054 0.264504 9.8881 0.536298 10.1087L0.562526 10.1293L2.32368 11.4745C2.43521 11.5604 2.52422 11.6709 2.58339 11.7968C2.64257 11.9227 2.67022 12.0605 2.66408 12.1989V12.8272C2.66967 12.9647 2.64168 13.1015 2.58241 13.2264C2.52313 13.3513 2.43427 13.4607 2.32312 13.5457L0.562526 14.8913L0.536298 14.912C0.264773 15.1322 0.0825602 15.4394 0.022242 15.7785C-0.0380762 16.1177 0.0274339 16.4666 0.207058 16.763L2.59042 20.7793C2.59317 20.7831 2.59559 20.7871 2.59768 20.7913C2.77827 21.0836 3.05827 21.3051 3.38906 21.4173C3.71986 21.5295 4.08054 21.5253 4.4085 21.4054L4.42803 21.3984L6.49666 20.587C6.62733 20.5355 6.76869 20.515 6.90908 20.5272C7.04947 20.5394 7.18487 20.5839 7.30414 20.6571C7.48717 20.7697 7.67318 20.8759 7.86217 20.9755C7.9847 21.0403 8.08991 21.1321 8.16929 21.2437C8.24868 21.3553 8.30003 21.4835 8.3192 21.6179L8.62947 23.7696L8.63616 23.8087C8.70419 24.1425 8.88831 24.4433 9.15748 24.6603C9.42665 24.8773 9.76442 24.9973 10.1138 25H14.8861C15.2399 24.9989 15.5819 24.8762 15.8519 24.6536C16.1219 24.431 16.3026 24.1228 16.3621 23.7831L16.3672 23.7527L16.678 21.5967C16.6974 21.4624 16.7487 21.3344 16.828 21.2228C16.9072 21.1113 17.0122 21.0193 17.1345 20.9543C17.3253 20.8543 17.5117 20.7484 17.6925 20.638C17.8116 20.5653 17.9466 20.5212 18.0866 20.5092C18.2266 20.4972 18.3675 20.5177 18.4977 20.569L20.5697 21.3815L20.5893 21.3891C20.9177 21.5093 21.279 21.5134 21.6102 21.4008C21.9414 21.2882 22.2215 21.066 22.4018 20.7728C22.404 20.7687 22.4064 20.7647 22.409 20.7609L24.7924 16.7451C24.9726 16.4484 25.0385 16.099 24.9783 15.7593C24.918 15.4196 24.7356 15.1119 24.4637 14.8913ZM16.9592 12.7043C16.9186 13.546 16.6278 14.358 16.1221 15.0416C15.6164 15.7252 14.9176 16.251 14.1108 16.555C13.304 16.859 12.4238 16.9282 11.5774 16.7541C10.7309 16.58 9.95468 16.1701 9.34299 15.5743C8.7313 14.9785 8.31054 14.2224 8.13187 13.3981C7.9532 12.5737 8.02433 11.7165 8.33659 10.9307C8.64886 10.145 9.18882 9.46454 9.89081 8.97212C10.5928 8.4797 11.4266 8.19654 12.2907 8.15706C12.9111 8.13046 13.5304 8.22988 14.1092 8.449C14.6881 8.66811 15.2137 9.00214 15.6528 9.42982C16.0919 9.85751 16.4348 10.3695 16.6597 10.9332C16.8846 11.497 16.9866 12.1001 16.9592 12.7043Z" fill="white"/>
</svg>
