<svg width="37" height="40" viewBox="0 0 37 40" fill="none" xmlns="http://www.w3.org/2000/svg">
<path d="M14.467 6.16667C12.5262 9.395 13.399 14.8783 16.8619 21.2083C18.426 24.0617 18.0341 26.2417 17.4304 27.5667C15.7788 31.1967 11.2497 32.2317 6.4565 33.3267C3.15341 34.0833 3.36364 34.7767 3.36364 40H0.00840908L0 37.9317C0 33.7317 0.334682 31.3067 5.34482 30.16C11.0041 28.865 16.5928 27.705 13.9053 22.7967C5.94523 8.24833 11.6348 0 20.1818 0C25.7671 0 30.2223 3.52833 30.2223 10.2783C30.2223 16.2033 26.9444 21.6667 26.2145 23.3333H22.6575C23.3167 20.7733 26.8603 16.0567 26.8603 10.2633C26.8603 1.675 16.9931 1.955 14.467 6.16667ZM37 31.6667H31.9545V26.6667H28.5909V31.6667H23.5455V35H28.5909V40H31.9545V35H37V31.6667Z" fill="#E4002B"/>
</svg>
