<svg width="37" height="40" viewBox="0 0 37 40" fill="none" xmlns="http://www.w3.org/2000/svg">
<path d="M25.2273 15V22.5017C23.9693 23.0233 22.8324 23.7767 21.8636 24.7V15C21.8636 14.08 22.6154 13.3333 23.5455 13.3333C24.4755 13.3333 25.2273 14.08 25.2273 15ZM18.5 15V31.6667C18.5 32.5867 17.7482 33.3333 16.8182 33.3333C15.8881 33.3333 15.1364 32.5867 15.1364 31.6667V15C15.1364 14.08 15.8881 13.3333 16.8182 13.3333C17.7482 13.3333 18.5 14.08 18.5 15ZM21.5609 40H1.68182V10H5.04545V36.6667H19.3443C19.869 37.915 20.6309 39.04 21.5609 40ZM10.0909 13.3333C11.021 13.3333 11.7727 14.08 11.7727 15V31.6667C11.7727 32.5867 11.021 33.3333 10.0909 33.3333C9.16086 33.3333 8.40909 32.5867 8.40909 31.6667V15C8.40909 14.08 9.16086 13.3333 10.0909 13.3333ZM33.6364 6.66667H0V3.33333H9.60486C11.1185 3.33333 12.3479 1.50167 12.3479 0H21.2885C21.2885 1.50167 22.5162 3.33333 24.0315 3.33333H33.6364V6.66667ZM31.9545 10V21.97C31.1439 21.7783 30.3013 21.6667 29.4318 21.6667L28.5909 21.7083V10H31.9545ZM37 32.5C37 36.6417 33.6078 40 29.4318 40C25.2559 40 21.8636 36.6417 21.8636 32.5C21.8636 28.3583 25.2559 25 29.4318 25C33.6078 25 37 28.3583 37 32.5ZM31.8099 28.9633L29.4318 31.32L27.0537 28.9633L25.8647 30.1433L28.2428 32.5L25.8647 34.8567L27.0537 36.0367L29.4318 33.68L31.8099 36.0367L33.0006 34.8567L30.6225 32.5L33.0006 30.1433L31.8099 28.9633Z" fill="#E4002B"/>
</svg>
