<?xml version="1.0" encoding="utf-8"?>
<!-- Generator: Adobe Illustrator 25.0.0, SVG Export Plug-In . SVG Version: 6.00 Build 0)  -->
<svg version="1.1" id="Layer_1" xmlns="http://www.w3.org/2000/svg" xmlns:xlink="http://www.w3.org/1999/xlink" x="0px" y="0px"
	 viewBox="0 0 715.9 147.5" style="enable-background:new 0 0 715.9 147.5;" xml:space="preserve">
<style type="text/css">
	.st0{fill:#0F204F;}
	.st1{fill:#58595B;}
	.st2{fill:#DF0817;}
</style>
<g>
	<g>
		<path class="st0" d="M518.3,18c0,0.1-0.1,0.2-0.1,0.2c-0.1,0-0.1,0.1-0.2,0.1h-0.9c-0.2,0-0.2-0.1-0.1-0.3l3.7-11.2
			c0-0.2,0.2-0.3,0.3-0.3h1c0.1,0,0.2,0,0.2,0.1c0,0,0.1,0.1,0.1,0.2L526,18c0,0.2,0,0.2-0.1,0.2h-1.1c-0.1,0-0.2,0-0.2-0.1
			c0,0-0.1-0.1-0.1-0.2l-0.9-2.9h-4.3L518.3,18z M522.3,10.9L521.4,8h-0.1l-0.8,2.8l-0.9,3h3.5L522.3,10.9z"/>
		<path class="st0" d="M528.9,18c0,0.2-0.1,0.3-0.3,0.3h-0.8c-0.2,0-0.3-0.1-0.3-0.3V6.8c0-0.1,0-0.2,0.1-0.3c0.1,0,0.1-0.1,0.2-0.1
			h0.8c0.1,0,0.2,0,0.2,0.1c0,0,0.1,0.1,0.1,0.3v4.8h1.9c0.2,0,0.4,0,0.6-0.1c0.2,0,0.4-0.1,0.6-0.2c0.2-0.1,0.4-0.3,0.5-0.5
			c0.2-0.2,0.3-0.5,0.4-0.9l1-3.1c0-0.1,0.1-0.2,0.2-0.3c0.1,0,0.2-0.1,0.3-0.1h0.6c0.2,0,0.3,0,0.3,0.1s0,0.2,0,0.3l-0.9,3
			c-0.2,0.6-0.4,1.1-0.7,1.4c-0.3,0.4-0.6,0.6-1,0.8c0.5,0.2,0.9,0.4,1.1,0.8c0.3,0.4,0.5,0.9,0.6,1.5l1,3.3c0,0.1,0.1,0.3,0,0.3
			c0,0.1-0.1,0.1-0.3,0.1h-0.7c-0.1,0-0.2,0-0.3-0.1c-0.1,0-0.1-0.1-0.2-0.3l-0.9-3.2c-0.1-0.4-0.3-0.7-0.4-0.9
			c-0.2-0.2-0.3-0.4-0.5-0.6c-0.2-0.1-0.4-0.2-0.6-0.3c-0.2,0-0.4-0.1-0.7-0.1h-2V18H528.9z"/>
		<path class="st0" d="M544.9,18.3h-7.2c-0.1,0-0.2,0-0.2-0.1c-0.1,0-0.1-0.1-0.1-0.3V6.7c0-0.2,0.1-0.3,0.3-0.3h0.8
			c0.2,0,0.3,0.1,0.3,0.3v10.2h5.3V6.7c0-0.2,0.1-0.3,0.3-0.3h0.8c0.2,0,0.3,0.1,0.3,0.3v10.2l0.7,0.1c0.1,0,0.2,0.1,0.2,0.2
			c0,0.1,0,0.2,0,0.2l-0.2,3.1c0,0.2,0,0.3-0.1,0.3c0,0-0.1,0.1-0.2,0.1h-0.7c-0.1,0-0.2,0-0.2-0.1c0,0-0.1-0.1-0.1-0.3L544.9,18.3z
			"/>
		<path class="st0" d="M548,6.8c0-0.1,0-0.2,0.1-0.3c0,0,0.1-0.1,0.2-0.1h0.7c0.1,0,0.2,0,0.2,0.1c0.1,0,0.1,0.1,0.1,0.3v9h0.1
			l1.5-2.3l4.3-6.7c0.1-0.1,0.1-0.2,0.2-0.2c0.1-0.1,0.1-0.1,0.3-0.1h0.7c0.2,0,0.3,0.1,0.3,0.3V18c0,0.2-0.1,0.3-0.3,0.3h-0.7
			c-0.2,0-0.3-0.1-0.3-0.3V8.9h-0.1l-1.2,1.9l-4.6,7.2c-0.1,0.1-0.1,0.2-0.2,0.2c-0.1,0-0.2,0.1-0.3,0.1h-0.7
			c-0.2,0-0.3-0.1-0.3-0.3V6.8z"/>
		<path class="st0" d="M568.1,12.2c0,0.7,0,1.4-0.1,2.1c-0.1,0.7-0.3,1.4-0.6,2s-0.8,1.1-1.4,1.5c-0.6,0.4-1.4,0.6-2.5,0.6
			c-0.7,0-1.3-0.1-1.8-0.3s-0.9-0.4-1.2-0.7s-0.6-0.7-0.8-1.1c-0.2-0.4-0.3-0.8-0.5-1.3s-0.2-0.9-0.2-1.4s0-1,0-1.4s0-0.8,0.1-1.2
			c0-0.4,0.1-0.9,0.2-1.3c0.1-0.4,0.3-0.9,0.5-1.3c0.2-0.4,0.5-0.8,0.8-1.1s0.7-0.6,1.2-0.7c0.5-0.2,1.1-0.3,1.7-0.3
			c1,0,1.8,0.2,2.4,0.5c0.6,0.3,1.1,0.8,1.4,1.3c0.3,0.6,0.5,1.2,0.6,1.9C568,10.8,568.1,11.5,568.1,12.2z M566.7,12.4
			c0-0.8-0.1-1.5-0.2-2.1c-0.1-0.6-0.3-1.1-0.5-1.5s-0.6-0.7-1-0.9s-0.9-0.3-1.6-0.3c-0.6,0-1.1,0.1-1.5,0.3s-0.7,0.5-1,1
			c-0.2,0.4-0.4,0.9-0.5,1.5s-0.2,1.3-0.2,2s0,1.4,0.1,2s0.2,1.1,0.5,1.5c0.2,0.4,0.5,0.7,0.9,1s0.9,0.3,1.5,0.3s1.2-0.1,1.6-0.3
			c0.4-0.2,0.7-0.5,1-0.9c0.2-0.4,0.4-0.9,0.5-1.5C566.6,13.8,566.7,13.1,566.7,12.4z"/>
		<path class="st0" d="M578.2,18.3h-0.8c-0.2,0-0.3-0.1-0.3-0.3v-5.3h-5.3V18c0,0.2-0.1,0.3-0.3,0.3h-0.8c-0.2,0-0.3-0.1-0.3-0.3
			V6.8c0-0.1,0-0.2,0.1-0.3c0.1,0,0.1-0.1,0.2-0.1h0.8c0.1,0,0.2,0,0.2,0.1c0,0,0.1,0.1,0.1,0.3v4.6h5.3V6.8c0-0.1,0-0.2,0.1-0.3
			c0.1,0,0.1-0.1,0.2-0.1h0.8c0.1,0,0.2,0,0.2,0.1c0,0,0.1,0.1,0.1,0.3V18C578.5,18.2,578.4,18.3,578.2,18.3z"/>
		<path class="st0" d="M587.8,18.2c0,0-0.1,0.1-0.2,0.1h-6.2c-0.2,0-0.3-0.1-0.3-0.3V6.8c0-0.2,0.1-0.3,0.3-0.3h6.1
			c0.2,0,0.3,0.1,0.3,0.3v0.7c0,0.2-0.1,0.3-0.3,0.3h-5v3.8h4.5c0.2,0,0.3,0.1,0.3,0.3v0.7c0,0.2-0.1,0.3-0.3,0.3h-4.5v4.2h5.2
			c0.2,0,0.3,0.1,0.3,0.3v0.7C587.9,18.1,587.9,18.2,587.8,18.2z"/>
		<path class="st0" d="M597.3,9.9c0,0.4-0.1,0.8-0.2,1.2c-0.1,0.4-0.3,0.8-0.6,1.2c-0.3,0.3-0.7,0.6-1.1,0.9
			c-0.5,0.2-1.1,0.3-1.8,0.3h-2.3V18c0,0.2-0.1,0.3-0.3,0.3h-0.8c-0.2,0-0.3-0.1-0.3-0.3V6.8c0-0.2,0.1-0.3,0.3-0.3h3.4
			c0.5,0,1,0.1,1.5,0.2s0.8,0.4,1.2,0.6c0.3,0.3,0.6,0.6,0.8,1.1C597.2,8.9,597.3,9.4,597.3,9.9z M596,9.9c0-0.7-0.2-1.3-0.7-1.7
			c-0.4-0.4-1-0.5-1.7-0.5h-2.2v4.5h2.3c0.5,0,0.8-0.1,1.1-0.2c0.3-0.1,0.5-0.3,0.7-0.5s0.3-0.5,0.4-0.7
			C595.9,10.5,596,10.2,596,9.9z"/>
		<path class="st0" d="M606.9,18.3h-0.8c-0.2,0-0.3-0.1-0.3-0.3v-5.3h-5.3V18c0,0.2-0.1,0.3-0.3,0.3h-0.8c-0.2,0-0.3-0.1-0.3-0.3
			V6.8c0-0.1,0-0.2,0.1-0.3c0.1,0,0.1-0.1,0.2-0.1h0.8c0.1,0,0.2,0,0.2,0.1c0,0,0.1,0.1,0.1,0.3v4.6h5.3V6.8c0-0.1,0-0.2,0.1-0.3
			c0.1,0,0.1-0.1,0.2-0.1h0.8c0.1,0,0.2,0,0.2,0.1c0,0,0.1,0.1,0.1,0.3V18C607.1,18.2,607,18.3,606.9,18.3z"/>
		<path class="st0" d="M618.6,12.2c0,0.7,0,1.4-0.1,2.1c-0.1,0.7-0.3,1.4-0.6,2s-0.8,1.1-1.4,1.5c-0.6,0.4-1.4,0.6-2.5,0.6
			c-0.7,0-1.3-0.1-1.8-0.3s-0.9-0.4-1.2-0.7s-0.6-0.7-0.8-1.1c-0.2-0.4-0.3-0.8-0.5-1.3c-0.1-0.5-0.2-0.9-0.2-1.4s0-1,0-1.4
			s0-0.8,0.1-1.2c0-0.4,0.1-0.9,0.2-1.3c0.1-0.4,0.3-0.9,0.5-1.3c0.2-0.4,0.5-0.8,0.8-1.1s0.7-0.6,1.2-0.7c0.5-0.2,1.1-0.3,1.7-0.3
			c1,0,1.8,0.2,2.4,0.5c0.6,0.3,1.1,0.8,1.4,1.3c0.3,0.6,0.5,1.2,0.6,1.9C618.6,10.8,618.6,11.5,618.6,12.2z M617.3,12.4
			c0-0.8-0.1-1.5-0.2-2.1c-0.1-0.6-0.3-1.1-0.5-1.5s-0.6-0.7-1-0.9s-0.9-0.3-1.6-0.3c-0.6,0-1.1,0.1-1.5,0.3s-0.7,0.5-1,1
			c-0.2,0.4-0.4,0.9-0.5,1.5s-0.2,1.3-0.2,2s0,1.4,0.1,2s0.2,1.1,0.5,1.5c0.2,0.4,0.5,0.7,0.9,1c0.4,0.2,0.9,0.3,1.5,0.3
			s1.2-0.1,1.6-0.3c0.4-0.2,0.7-0.5,1-0.9c0.2-0.4,0.4-0.9,0.5-1.5C617.2,13.8,617.3,13.1,617.3,12.4z"/>
		<path class="st0" d="M627.8,18.2c0,0-0.1,0.1-0.2,0.1h-6.2c-0.2,0-0.3-0.1-0.3-0.3V6.8c0-0.2,0.1-0.3,0.3-0.3h6.1
			c0.2,0,0.3,0.1,0.3,0.3v0.7c0,0.2-0.1,0.3-0.3,0.3h-5v3.8h4.5c0.2,0,0.3,0.1,0.3,0.3v0.7c0,0.2-0.1,0.3-0.3,0.3h-4.5v4.2h5.2
			c0.2,0,0.3,0.1,0.3,0.3v0.7C627.9,18.1,627.9,18.2,627.8,18.2z"/>
		<path class="st0" d="M643.7,12.2c0,0.7,0,1.4-0.1,2.1c-0.1,0.7-0.3,1.4-0.6,2s-0.8,1.1-1.4,1.5c-0.6,0.4-1.4,0.6-2.5,0.6
			c-0.7,0-1.3-0.1-1.8-0.3s-0.9-0.4-1.2-0.7s-0.6-0.7-0.8-1.1c-0.2-0.4-0.3-0.8-0.5-1.3c-0.1-0.5-0.2-0.9-0.2-1.4s0-1,0-1.4
			s0-0.8,0.1-1.2c0-0.4,0.1-0.9,0.2-1.3c0.1-0.4,0.3-0.9,0.5-1.3c0.2-0.4,0.5-0.8,0.8-1.1s0.7-0.6,1.2-0.7c0.5-0.2,1.1-0.3,1.7-0.3
			c1,0,1.8,0.2,2.4,0.5c0.6,0.3,1.1,0.8,1.4,1.3c0.3,0.6,0.5,1.2,0.6,1.9C643.7,10.8,643.7,11.5,643.7,12.2z M642.4,12.4
			c0-0.8-0.1-1.5-0.2-2.1c-0.1-0.6-0.3-1.1-0.5-1.5s-0.6-0.7-1-0.9s-0.9-0.3-1.6-0.3c-0.6,0-1.1,0.1-1.5,0.3s-0.7,0.5-1,1
			c-0.2,0.4-0.4,0.9-0.5,1.5s-0.2,1.3-0.2,2s0,1.4,0.1,2s0.2,1.1,0.5,1.5c0.2,0.4,0.5,0.7,0.9,1c0.4,0.2,0.9,0.3,1.5,0.3
			s1.2-0.1,1.6-0.3c0.4-0.2,0.7-0.5,1-0.9c0.2-0.4,0.4-0.9,0.5-1.5C642.3,13.8,642.4,13.1,642.4,12.4z"/>
		<path class="st0" d="M652.9,7.5c0,0.2-0.1,0.3-0.3,0.3h-5.1v3.6h2.8c0.7,0,1.3,0.1,1.8,0.3s0.8,0.5,1.1,0.8s0.5,0.7,0.6,1.1
			c0.1,0.4,0.2,0.8,0.2,1.2c0,0.6-0.1,1.1-0.3,1.5s-0.5,0.8-0.8,1.1s-0.7,0.5-1.2,0.6c-0.4,0.1-0.9,0.2-1.4,0.2h-3.7
			c-0.2,0-0.3-0.1-0.3-0.3V6.7c0-0.2,0.1-0.3,0.2-0.3h6.3c0.2,0,0.3,0.1,0.3,0.3v0.8H652.9z M652.5,14.8c0-0.3,0-0.6-0.1-0.8
			c-0.1-0.3-0.2-0.5-0.3-0.7c-0.2-0.2-0.4-0.4-0.7-0.5s-0.7-0.2-1.1-0.2h-2.7V17h2.6c0.7,0,1.3-0.2,1.7-0.5
			C652.2,16.1,652.5,15.6,652.5,14.8z"/>
		<path class="st0" d="M667,18.3h-11.1c-0.2,0-0.3-0.1-0.3-0.3V6.8c0-0.2,0.1-0.3,0.3-0.3h0.8c0.2,0,0.3,0.1,0.3,0.3V17h3.9V6.8
			c0-0.1,0-0.2,0.1-0.3c0.1,0,0.1-0.1,0.2-0.1h0.8c0.1,0,0.2,0,0.2,0.1c0.1,0,0.1,0.1,0.1,0.3V17h3.8V6.8c0-0.2,0.1-0.3,0.3-0.3h0.8
			c0.2,0,0.3,0.1,0.3,0.3V17l0.7,0.1c0.1,0,0.2,0.1,0.2,0.2c0,0.1,0,0.2,0,0.2l-0.2,3.1c0,0.2,0,0.3-0.1,0.3c0,0-0.1,0.1-0.2,0.1
			h-0.7c-0.1,0-0.2,0-0.2-0.1c0,0-0.1-0.1-0.1-0.3L667,18.3z"/>
		<path class="st0" d="M676.8,18.2c0,0-0.1,0.1-0.2,0.1h-6.2c-0.2,0-0.3-0.1-0.3-0.3V6.8c0-0.2,0.1-0.3,0.3-0.3h6.1
			c0.2,0,0.3,0.1,0.3,0.3v0.7c0,0.2-0.1,0.3-0.3,0.3h-5v3.8h4.5c0.2,0,0.3,0.1,0.3,0.3v0.7c0,0.2-0.1,0.3-0.3,0.3h-4.5v4.2h5.2
			c0.2,0,0.3,0.1,0.3,0.3v0.7C676.9,18.1,676.9,18.2,676.8,18.2z"/>
		<path class="st0" d="M683.4,6.4c0.2,0,0.4,0,0.7,0s0.5,0,0.8,0.1c0.3,0,0.6,0.1,0.9,0.1c0.3,0.1,0.6,0.1,0.8,0.2
			c0.1,0.1,0.2,0.1,0.2,0.2c0,0.1,0,0.1,0,0.2l-0.1,0.5c0,0.1-0.1,0.1-0.1,0.2c0,0-0.1,0.1-0.2,0c-0.4-0.1-0.8-0.1-1.4-0.2
			c-0.5-0.1-1.1-0.1-1.6-0.1c-0.7,0-1.2,0.1-1.6,0.4c-0.4,0.3-0.7,0.6-0.9,1.1c-0.2,0.4-0.3,1-0.4,1.5c-0.1,0.6-0.1,1.2-0.1,1.9
			c0,0.6,0,1.2,0.1,1.7c0.1,0.6,0.2,1,0.4,1.5c0.2,0.4,0.5,0.8,0.9,1c0.4,0.3,0.9,0.4,1.6,0.4c0.5,0,1.1,0,1.6-0.1s1-0.1,1.4-0.2
			c0.1,0,0.2,0,0.3,0c0,0.1,0.1,0.1,0.1,0.2l0.1,0.5c0,0.1,0,0.2,0,0.2c0,0.1-0.1,0.1-0.2,0.2c-0.2,0.1-0.5,0.2-0.8,0.2
			c-0.3,0.1-0.6,0.1-0.9,0.1c-0.3,0-0.6,0.1-0.9,0.1c-0.3,0-0.5,0-0.7,0c-0.9,0-1.7-0.2-2.3-0.5s-1-0.8-1.4-1.3
			c-0.3-0.5-0.6-1.2-0.7-1.9c-0.1-0.7-0.2-1.5-0.2-2.2c0-0.8,0.1-1.5,0.2-2.3c0.1-0.7,0.3-1.4,0.7-2c0.3-0.6,0.8-1,1.4-1.4
			C681.7,6.5,682.4,6.4,683.4,6.4z"/>
		<path class="st0" d="M695.2,7.8h-3V18c0,0.2-0.1,0.3-0.3,0.3h-0.8c-0.2,0-0.3-0.1-0.3-0.3V7.8h-3c-0.2,0-0.3-0.1-0.3-0.3V6.8
			c0-0.2,0.1-0.3,0.3-0.3h7.4c0.2,0,0.3,0.1,0.3,0.3v0.7C695.5,7.7,695.4,7.8,695.2,7.8z"/>
		<path class="st0" d="M705,15c0,0.5-0.1,0.9-0.3,1.3c-0.2,0.4-0.4,0.7-0.7,1s-0.6,0.5-1,0.6c-0.4,0.2-0.8,0.2-1.2,0.2h-4.3
			c-0.1,0-0.2,0-0.3-0.1c-0.1,0-0.1-0.1-0.1-0.2V6.6c0-0.2,0.1-0.3,0.3-0.3h3.8c1.2,0,2,0.3,2.6,0.8c0.6,0.6,0.9,1.3,0.9,2.2
			c0,0.2,0,0.4-0.1,0.6c0,0.2-0.1,0.5-0.2,0.7c-0.1,0.2-0.3,0.5-0.5,0.7s-0.4,0.4-0.8,0.5l0,0c0.4,0.1,0.7,0.3,0.9,0.5
			s0.4,0.5,0.6,0.8c0.1,0.3,0.2,0.6,0.3,0.9C704.9,14.5,705,14.8,705,15z M703.2,9.6c0-0.5-0.2-1-0.5-1.3c-0.3-0.4-0.9-0.5-1.7-0.5
			h-2.5v3.7h2.8c0.3,0,0.5,0,0.7-0.2c0.2-0.1,0.4-0.2,0.6-0.4c0.2-0.2,0.3-0.4,0.4-0.6C703.1,10.2,703.2,9.9,703.2,9.6z M703.5,14.9
			c0-0.3,0-0.5-0.1-0.8s-0.2-0.5-0.4-0.7s-0.4-0.4-0.7-0.5s-0.6-0.2-1-0.2h-2.8v4.2h2.8c0.4,0,0.8-0.1,1.1-0.2
			c0.3-0.1,0.5-0.3,0.7-0.5s0.3-0.4,0.3-0.7C703.5,15.5,703.5,15.2,703.5,14.9z"/>
		<path class="st0" d="M715.9,12.2c0,0.7,0,1.4-0.1,2.1c-0.1,0.7-0.3,1.4-0.6,2s-0.8,1.1-1.4,1.5c-0.6,0.4-1.4,0.6-2.5,0.6
			c-0.7,0-1.3-0.1-1.8-0.3s-0.9-0.4-1.2-0.7s-0.6-0.7-0.8-1.1c-0.2-0.4-0.3-0.8-0.5-1.3c-0.1-0.5-0.2-0.9-0.2-1.4s0-1,0-1.4
			s0-0.8,0.1-1.2c0-0.4,0.1-0.9,0.2-1.3c0.1-0.4,0.3-0.9,0.5-1.3c0.2-0.4,0.5-0.8,0.8-1.1s0.7-0.6,1.2-0.7c0.5-0.2,1.1-0.3,1.7-0.3
			c1,0,1.8,0.2,2.4,0.5c0.6,0.3,1.1,0.8,1.4,1.3c0.3,0.6,0.5,1.2,0.6,1.9C715.9,10.8,715.9,11.5,715.9,12.2z M714.6,12.4
			c0-0.8-0.1-1.5-0.2-2.1c-0.1-0.6-0.3-1.1-0.5-1.5s-0.6-0.7-1-0.9s-0.9-0.3-1.6-0.3c-0.6,0-1.1,0.1-1.5,0.3s-0.7,0.5-1,1
			c-0.2,0.4-0.4,0.9-0.5,1.5s-0.2,1.3-0.2,2s0,1.4,0.1,2s0.2,1.1,0.5,1.5c0.2,0.4,0.5,0.7,0.9,1c0.4,0.2,0.9,0.3,1.5,0.3
			s1.2-0.1,1.6-0.3c0.4-0.2,0.7-0.5,1-0.9c0.2-0.4,0.4-0.9,0.5-1.5C714.5,13.8,714.6,13.1,714.6,12.4z"/>
	</g>
	<g>
		<path class="st1" d="M206.4,34h-11v37.7c0,0.7-0.4,1.1-1,1.1h-2.8c-0.8,0-1.2-0.4-1.2-1.1V34h-11c-0.8,0-1.2-0.4-1.2-1.1v-2.5
			c0-0.7,0.4-1,1.1-1h27.1c0.7,0,1.1,0.3,1.1,1v2.5C207.6,33.6,207.2,34,206.4,34z"/>
		<path class="st1" d="M238.5,72.6c-0.2,0.1-0.5,0.2-0.9,0.2h-23c-0.8,0-1.2-0.3-1.2-1V30.5c0-0.7,0.4-1.1,1.2-1.1h22.6
			c0.7,0,1.1,0.3,1.1,1v2.5c0,0.7-0.4,1.1-1.2,1.1h-18.6v13.9h16.7c0.7,0,1.1,0.3,1.1,1v2.6c0,0.7-0.4,1-1.1,1h-16.7v15.6h19.2
			c0.7,0,1,0.4,1,1.1v2.5C238.7,72.2,238.6,72.5,238.5,72.6z"/>
		<path class="st1" d="M274.6,72.5c-0.1,0.2-0.3,0.3-0.6,0.3h-3.7c-0.4,0-0.7-0.1-0.9-0.2s-0.4-0.4-0.6-0.7l-5.8-9.8l-4.3-7.3
			l-3.9,6.8l-6.1,10.2c-0.2,0.3-0.4,0.6-0.6,0.7s-0.5,0.2-1,0.2h-3.7c-0.3,0-0.5-0.1-0.6-0.3c-0.1-0.2,0-0.4,0.1-0.7l13-21.4
			l-12.1-20.1c-0.2-0.3-0.2-0.5-0.1-0.7s0.3-0.3,0.6-0.3h3.8c0.5,0,0.8,0.1,0.9,0.2c0.1,0.2,0.3,0.4,0.5,0.6l5.1,8.9l4,7l4.1-7.1
			l5-8.7c0.3-0.6,0.8-0.9,1.5-0.9h3.5c0.3,0,0.6,0.1,0.7,0.3c0.1,0.2,0.1,0.5-0.1,0.7l-12.1,20.1l13,21.4
			C274.7,72.1,274.7,72.3,274.6,72.5z"/>
		<path class="st1" d="M309.2,72.8h-2.8c-0.8,0-1.2-0.4-1.2-1.1V52.2h-19.5v19.5c0,0.7-0.3,1.1-1,1.1h-2.8c-0.8,0-1.2-0.4-1.2-1.1
			V30.5c0-0.5,0.1-0.8,0.3-1s0.5-0.2,0.9-0.2h2.8c0.3,0,0.6,0.1,0.8,0.2c0.2,0.2,0.3,0.5,0.3,1v17h19.5v-17c0-0.5,0.1-0.8,0.3-1
			c0.2-0.2,0.5-0.2,0.9-0.2h2.8c0.3,0,0.6,0.1,0.8,0.2c0.2,0.2,0.3,0.5,0.3,1v41.2C310.3,72.5,309.9,72.8,309.2,72.8z"/>
		<path class="st1" d="M352.7,50.5c0,2.6-0.2,5.2-0.5,7.9c-0.3,2.7-1,5.2-2.2,7.4c-1.2,2.2-2.9,4.1-5.1,5.5
			c-2.3,1.4-5.3,2.1-9.2,2.1c-2.6,0-4.8-0.3-6.6-1s-3.3-1.5-4.5-2.7c-1.2-1.1-2.2-2.4-2.9-3.9s-1.3-3.1-1.7-4.8
			c-0.4-1.7-0.6-3.5-0.8-5.2c-0.1-1.8-0.2-3.6-0.2-5.3c0-1.4,0.1-2.8,0.2-4.4c0.1-1.6,0.4-3.2,0.8-4.8c0.4-1.6,1-3.1,1.7-4.7
			c0.8-1.5,1.8-2.8,3-4c1.2-1.1,2.7-2.1,4.5-2.8c1.8-0.7,4-1,6.4-1c3.7,0,6.7,0.6,8.9,1.9c2.2,1.3,4,2.9,5.1,5c1.2,2,2,4.3,2.3,6.9
			C352.5,45.2,352.7,47.8,352.7,50.5z M347.6,51.1c0-2.8-0.2-5.4-0.6-7.6c-0.4-2.2-1-4.1-1.9-5.6c-0.9-1.5-2.1-2.7-3.7-3.4
			c-1.5-0.8-3.5-1.2-5.8-1.2c-2.2,0-4,0.4-5.5,1.2c-1.5,0.8-2.6,2-3.5,3.6c-0.9,1.5-1.5,3.4-1.9,5.6c-0.4,2.2-0.6,4.6-0.6,7.4
			c0,2.7,0.2,5.1,0.5,7.2c0.3,2.2,0.9,4,1.8,5.6c0.9,1.5,2,2.8,3.5,3.6c1.5,0.9,3.4,1.3,5.7,1.3c2.4,0,4.3-0.4,5.8-1.2
			c1.5-0.8,2.8-2,3.7-3.5s1.6-3.4,1.9-5.6C347.5,56.3,347.6,53.8,347.6,51.1z"/>
		<path class="st1" d="M370.9,48.5c-0.2,3.2-0.4,6.3-0.6,9.3s-0.6,5.6-1.3,7.9s-1.8,4.1-3.4,5.5c-1.6,1.4-3.9,2.1-6.9,2.1
			c-0.6,0-1-0.1-1.2-0.3c-0.2-0.2-0.3-0.5-0.3-0.9l-0.1-1.8c0-0.3,0.1-0.6,0.2-0.7c0.1-0.1,0.4-0.2,0.8-0.3c1.2-0.2,2.2-0.5,3-0.9
			c0.8-0.3,1.5-0.8,2-1.4s1-1.4,1.3-2.4s0.6-2.3,0.8-3.9s0.4-3.5,0.5-5.7c0.1-2.2,0.3-4.9,0.5-8l1-16.5c0-0.5,0.1-0.8,0.3-1
			s0.5-0.2,0.9-0.2h21.2c0.3,0,0.6,0.1,0.8,0.2c0.2,0.2,0.3,0.5,0.3,1v41.2c0,0.7-0.3,1.1-1,1.1h-2.8c-0.8,0-1.2-0.4-1.2-1.1V34
			h-13.8L370.9,48.5z"/>
		<path class="st1" d="M432.9,50.5c0,2.6-0.2,5.2-0.5,7.9c-0.3,2.7-1,5.2-2.2,7.4c-1.2,2.2-2.9,4.1-5.1,5.5
			c-2.3,1.4-5.3,2.1-9.2,2.1c-2.6,0-4.8-0.3-6.6-1s-3.3-1.5-4.5-2.7c-1.2-1.1-2.2-2.4-2.9-3.9s-1.3-3.1-1.7-4.8
			c-0.4-1.7-0.6-3.5-0.8-5.2c-0.1-1.8-0.2-3.6-0.2-5.3c0-1.4,0.1-2.8,0.2-4.4c0.1-1.6,0.4-3.2,0.8-4.8c0.4-1.6,1-3.1,1.7-4.7
			c0.8-1.5,1.8-2.8,3-4c1.2-1.1,2.7-2.1,4.5-2.8c1.8-0.7,4-1,6.4-1c3.7,0,6.7,0.6,8.9,1.9c2.2,1.3,4,2.9,5.1,5c1.2,2,2,4.3,2.3,6.9
			C432.7,45.2,432.9,47.8,432.9,50.5z M427.9,51.1c0-2.8-0.2-5.4-0.6-7.6c-0.4-2.2-1-4.1-1.9-5.6c-0.9-1.5-2.1-2.7-3.7-3.4
			c-1.5-0.8-3.5-1.2-5.8-1.2c-2.2,0-4,0.4-5.5,1.2c-1.5,0.8-2.6,2-3.5,3.6c-0.9,1.5-1.5,3.4-1.9,5.6c-0.4,2.2-0.6,4.6-0.6,7.4
			c0,2.7,0.2,5.1,0.5,7.2c0.3,2.2,0.9,4,1.8,5.6c0.9,1.5,2,2.8,3.5,3.6c1.5,0.9,3.4,1.3,5.7,1.3c2.4,0,4.3-0.4,5.8-1.2
			c1.5-0.8,2.8-2,3.7-3.5c0.9-1.5,1.6-3.4,1.9-5.6C427.7,56.3,427.9,53.8,427.9,51.1z"/>
		<path class="st1" d="M465.4,34h-18.3v37.7c0,0.7-0.3,1.1-1,1.1h-2.8c-0.8,0-1.2-0.4-1.2-1.1V30.4c0-0.7,0.4-1.1,1.2-1.1h22.2
			c0.7,0,1.1,0.3,1.1,1v2.5C466.6,33.6,466.2,34,465.4,34z"/>
		<path class="st1" d="M471.6,30.5c0-0.5,0.1-0.8,0.3-1s0.4-0.2,0.8-0.2h2.7c0.4,0,0.7,0.1,0.9,0.2c0.2,0.2,0.3,0.5,0.3,1v33.4h0.2
			l5.4-8.6L498,30.4c0.2-0.3,0.4-0.6,0.6-0.8c0.2-0.2,0.5-0.3,1-0.3h2.7c0.7,0,1.1,0.3,1.1,1v41.4c0,0.7-0.4,1.1-1.2,1.1h-2.7
			c-0.8,0-1.1-0.4-1.1-1.1V37.9h-0.2l-4.4,7.1l-16.9,26.7c-0.2,0.3-0.4,0.6-0.7,0.8c-0.2,0.2-0.6,0.3-1,0.3h-2.5c-0.7,0-1-0.3-1-1
			L471.6,30.5L471.6,30.5z"/>
		<path class="st1" d="M512.8,30.5c0-0.5,0.1-0.8,0.3-1s0.4-0.2,0.8-0.2h2.7c0.4,0,0.7,0.1,0.9,0.2c0.2,0.2,0.3,0.5,0.3,1v33.4h0.2
			l5.4-8.6l15.8-24.9c0.2-0.3,0.4-0.6,0.6-0.8c0.2-0.2,0.5-0.3,1-0.3h2.7c0.7,0,1.1,0.3,1.1,1v41.4c0,0.7-0.4,1.1-1.2,1.1h-2.7
			c-0.8,0-1.1-0.4-1.1-1.1V37.9h-0.2L535,45l-16.9,26.7c-0.2,0.3-0.4,0.6-0.7,0.8c-0.2,0.2-0.6,0.3-1,0.3h-2.5c-0.7,0-1-0.3-1-1
			L512.8,30.5L512.8,30.5z"/>
		<g>
			<path class="st0" d="M191.9,128.2c0,0.4-0.1,0.7-0.2,1c-0.2,0.3-0.5,0.5-1.1,0.5H183c-1,0-1.4-0.5-1.4-1.4V87.6
				c0-0.4,0.1-0.7,0.3-1s0.6-0.4,1.1-0.4h15.2c2.1,0,4,0.3,5.8,0.9s3.4,1.4,4.7,2.5c1.4,1.1,2.4,2.5,3.2,4.2c0.8,1.7,1.1,3.7,1.1,6
				c0,1.5-0.2,3.1-0.6,4.8c-0.4,1.6-1.2,3.1-2.3,4.5c-1.1,1.4-2.6,2.5-4.5,3.4s-4.4,1.3-7.4,1.3H192v14.4H191.9z M202.3,99.9
				c0-1.7-0.5-3-1.5-3.9c-1-0.8-2.4-1.2-4.1-1.2H192v10.4h4.9c1.7,0,3-0.4,4-1.3C201.8,103,202.3,101.7,202.3,99.9z"/>
		</g>
		<g>
			<path class="st0" d="M223.4,127.8c-0.2,0.7-0.5,1.2-0.9,1.4c-0.3,0.3-0.8,0.4-1.4,0.4h-7.3c-0.5,0-0.8-0.1-1-0.3
				c-0.2-0.2-0.2-0.7,0.1-1.4l12.7-40c0.2-0.6,0.5-1.1,0.8-1.4s0.9-0.5,1.8-0.5h8.3c0.9,0,1.5,0.2,1.8,0.5s0.5,0.8,0.8,1.4
				l13.2,40.1c0.1,0.5,0.2,0.9,0.1,1.2c-0.1,0.3-0.4,0.4-0.9,0.4h-8.1c-0.7,0-1.2-0.2-1.5-0.5s-0.5-0.8-0.7-1.5l-2.2-7.8h-13
				L223.4,127.8z M234.6,104.6l-2.1-8h-0.3l-2.2,8l-2,7.3h8.5L234.6,104.6z"/>
		</g>
		<g>
			<path class="st0" d="M287.6,129.6h-23.5l-0.6,8.5c-0.1,0.9-0.2,1.4-0.5,1.6c-0.2,0.2-0.7,0.3-1.4,0.3h-5.8c-0.6,0-1-0.1-1.3-0.4
				c-0.2-0.2-0.4-0.9-0.4-1.9l-0.5-14.8c0-0.5,0.1-0.9,0.3-1.2c0.2-0.3,0.6-0.5,1.3-0.7l2.2-0.4c0.8-0.7,1.5-1.6,2-2.5
				c0.6-0.9,1-1.9,1.4-3.1c0.4-1.2,0.7-2.5,0.9-3.9c0.2-1.5,0.4-3.1,0.6-4.9l1.4-17.8c0.1-0.9,0.3-1.5,0.8-1.8
				c0.4-0.3,1-0.5,1.7-0.5h26c1,0,1.4,0.5,1.4,1.5v33.3l2.7,0.3c1,0.1,1.4,0.8,1.4,1.9l-0.7,14.7c-0.1,1-0.2,1.6-0.4,1.9
				s-0.6,0.4-1.2,0.4h-5.7c-0.7,0-1.1-0.1-1.3-0.3c-0.2-0.2-0.4-0.8-0.4-1.6L287.6,129.6z M283,120.7V94.8h-9.6l-1.2,14
				c-0.2,2.5-0.5,4.8-1,6.8c-0.4,2-1.1,3.7-2,5.1H283z"/>
		</g>
		<g>
			<path class="st0" d="M303.6,87.6c0-0.5,0.1-0.9,0.3-1.1c0.2-0.3,0.6-0.4,1.1-0.4h7.5c0.6,0,1,0.2,1.2,0.5s0.3,0.7,0.3,1v23.5
				c0.4-0.6,0.8-1.1,1.1-1.7c0.4-0.6,0.8-1.2,1.1-1.8l12.5-19.7c0.3-0.4,0.7-0.8,1.1-1.2c0.4-0.4,1-0.6,1.9-0.6h6.4
				c0.6,0,0.9,0.2,1.1,0.5s0.3,0.6,0.3,0.9v40.7c0,0.3-0.1,0.7-0.3,1c-0.2,0.3-0.6,0.4-1.2,0.4h-7.5c-1,0-1.4-0.5-1.4-1.4V104H329
				l-15.1,23.8c-0.3,0.5-0.8,0.9-1.2,1.2c-0.5,0.4-1.1,0.5-2,0.5h-5.6c-0.6,0-1-0.1-1.1-0.4c-0.2-0.2-0.3-0.6-0.3-1L303.6,87.6
				L303.6,87.6z"/>
		</g>
		<g>
			<path class="st0" d="M385.3,107.3c0,2.5-0.2,5.1-0.6,7.8c-0.4,2.7-1.2,5.2-2.5,7.4c-1.3,2.3-3.2,4.1-5.7,5.6s-5.9,2.2-10.2,2.2
				c-2.8,0-5.3-0.3-7.3-1s-3.7-1.6-5.1-2.7c-1.4-1.1-2.5-2.5-3.3-4s-1.4-3.1-1.9-4.9c-0.4-1.7-0.7-3.4-0.9-5.2
				c-0.1-1.8-0.2-3.5-0.2-5.1c0-1.3,0.1-2.7,0.2-4.3c0.2-1.6,0.5-3.2,0.9-4.8c0.5-1.6,1.1-3.2,1.9-4.7s1.9-2.9,3.3-4.1
				c1.4-1.2,3.1-2.1,5.1-2.9c2-0.7,4.4-1.1,7.2-1.1c4.1,0,7.4,0.6,9.9,1.9s4.4,3,5.7,5c1.4,2.1,2.2,4.4,2.7,7
				C385.1,102.1,385.3,104.7,385.3,107.3z M374.6,108c0-4.7-0.6-8.1-1.7-10.3c-1.2-2.2-3.3-3.2-6.5-3.2c-2.9,0-5,1.1-6.1,3.3
				c-1.1,2.2-1.7,5.6-1.7,10.2c0,4.4,0.5,7.7,1.6,9.9c1.1,2.2,3.1,3.3,6.1,3.3c3.1,0,5.2-1.1,6.4-3.2
				C374.1,115.8,374.6,112.5,374.6,108z"/>
		</g>
		<g>
			<path class="st0" d="M413.3,116.1c-0.6-1.9-1.4-3.2-2.4-3.7s-2.1-0.8-3.3-0.8h-3.4v16.7c0,0.3-0.1,0.6-0.2,1
				c-0.2,0.3-0.5,0.5-1.1,0.5h-7.8c-1,0-1.5-0.5-1.5-1.4V87.7c0-0.4,0.1-0.8,0.3-1.1c0.2-0.3,0.6-0.4,1.2-0.4h7.8
				c0.6,0,1,0.2,1.1,0.5c0.2,0.3,0.2,0.7,0.2,1v15h3.6c0.5,0,1-0.1,1.6-0.2c0.5-0.1,1-0.3,1.5-0.6c0.5-0.3,1-0.8,1.4-1.3
				c0.4-0.6,0.8-1.4,1.1-2.3l3.2-10c0.3-0.7,0.6-1.3,0.9-1.5c0.3-0.3,1-0.4,2-0.4h7c1.1,0,1.5,0.5,1.2,1.6l-3.5,11.1
				c-0.7,2.1-1.5,3.9-2.4,5.3c-0.9,1.4-1.9,2.4-3.2,2.9c1.5,0.6,2.7,1.6,3.4,3s1.5,3.1,2.2,5.1l4,12.7c0.3,1.1,0,1.6-1.2,1.6h-7.5
				c-1,0-1.7-0.1-2-0.4s-0.6-0.8-0.9-1.5L413.3,116.1z"/>
		</g>
		<g>
			<path class="st0" d="M471.9,107.3c0,2.5-0.2,5.1-0.6,7.8c-0.4,2.7-1.2,5.2-2.5,7.4c-1.3,2.3-3.2,4.1-5.7,5.6s-5.9,2.2-10.2,2.2
				c-2.8,0-5.3-0.3-7.3-1s-3.7-1.6-5.1-2.7c-1.4-1.1-2.5-2.5-3.3-4s-1.4-3.1-1.9-4.9c-0.4-1.7-0.7-3.4-0.9-5.2
				c-0.1-1.8-0.2-3.5-0.2-5.1c0-1.3,0.1-2.7,0.2-4.3c0.2-1.6,0.5-3.2,0.9-4.8c0.5-1.6,1.1-3.2,1.9-4.7s1.9-2.9,3.3-4.1
				c1.4-1.2,3.1-2.1,5.1-2.9c2-0.7,4.4-1.1,7.2-1.1c4.1,0,7.4,0.6,9.9,1.9s4.4,3,5.7,5c1.4,2.1,2.3,4.4,2.7,7
				C471.7,102.1,471.9,104.7,471.9,107.3z M461.2,108c0-4.7-0.6-8.1-1.7-10.3c-1.2-2.2-3.3-3.2-6.5-3.2c-2.9,0-5,1.1-6.1,3.3
				c-1.1,2.2-1.7,5.6-1.7,10.2c0,4.4,0.5,7.7,1.6,9.9c1.1,2.2,3.1,3.3,6.1,3.3c3.1,0,5.2-1.1,6.4-3.2
				C460.6,115.8,461.2,112.5,461.2,108z"/>
		</g>
		<g>
			<path class="st0" d="M503.3,87.6c0-0.4,0.1-0.8,0.3-1.1c0.2-0.3,0.6-0.4,1.1-0.4h7.6c0.6,0,1,0.2,1.1,0.5c0.2,0.3,0.2,0.7,0.2,1
				v40.7c0,0.4-0.1,0.7-0.2,1c-0.2,0.3-0.5,0.5-1.1,0.5h-7.6c-1,0-1.4-0.5-1.4-1.4v-16.8h-12.8v16.8c0,0.4-0.1,0.7-0.2,1
				c-0.2,0.3-0.5,0.5-1.1,0.5h-7.6c-1,0-1.4-0.5-1.4-1.4V87.8c0-0.4,0.1-0.8,0.3-1.1c0.2-0.3,0.6-0.4,1.1-0.4h7.6
				c0.6,0,1,0.2,1.1,0.5c0.2,0.3,0.2,0.7,0.2,1v14.9h12.8L503.3,87.6L503.3,87.6z"/>
		</g>
		<g>
			<path class="st0" d="M551.2,94.4c-0.2,0.3-0.6,0.4-1.1,0.4h-9.7v33.4c0,0.3-0.1,0.7-0.2,1c-0.2,0.3-0.5,0.5-1.1,0.5h-7.5
				c-0.6,0-1-0.1-1.1-0.4c-0.2-0.3-0.3-0.6-0.3-1.1V94.8h-9.6c-0.6,0-1-0.1-1.2-0.4s-0.3-0.6-0.3-1v-5.9c0-0.4,0.1-0.8,0.3-1
				c0.2-0.3,0.6-0.4,1.2-0.4h29.7c1,0,1.4,0.5,1.4,1.4v5.9C551.5,93.8,551.4,94.1,551.2,94.4z"/>
		</g>
		<g>
			<path class="st0" d="M567.1,128.2c0,0.4-0.1,0.7-0.2,1c-0.2,0.3-0.5,0.5-1.1,0.5h-7.6c-1,0-1.4-0.5-1.4-1.4V87.6
				c0-0.4,0.1-0.7,0.3-1s0.6-0.4,1.1-0.4h15.2c2.1,0,4,0.3,5.8,0.9s3.4,1.4,4.7,2.5c1.4,1.1,2.4,2.5,3.2,4.2s1.1,3.7,1.1,6
				c0,1.5-0.2,3.1-0.6,4.8c-0.4,1.6-1.2,3.1-2.3,4.5s-2.6,2.5-4.5,3.4s-4.4,1.3-7.4,1.3h-6.2L567.1,128.2L567.1,128.2z M577.4,99.9
				c0-1.7-0.5-3-1.5-3.9c-1-0.8-2.4-1.2-4.1-1.2h-4.7v10.4h4.9c1.7,0,3-0.4,4-1.3C577,103,577.4,101.7,577.4,99.9z"/>
		</g>
		<g>
			<path class="st0" d="M630.8,107.3c0,2.5-0.2,5.1-0.6,7.8c-0.4,2.7-1.2,5.2-2.5,7.4c-1.3,2.3-3.2,4.1-5.7,5.6s-5.9,2.2-10.2,2.2
				c-2.8,0-5.3-0.3-7.3-1s-3.7-1.6-5.1-2.7c-1.4-1.1-2.5-2.5-3.3-4s-1.4-3.1-1.9-4.9c-0.4-1.7-0.7-3.4-0.9-5.2
				c-0.1-1.8-0.2-3.5-0.2-5.1c0-1.3,0.1-2.7,0.2-4.3c0.2-1.6,0.5-3.2,0.9-4.8c0.5-1.6,1.1-3.2,1.9-4.7c0.8-1.5,1.9-2.9,3.3-4.1
				c1.4-1.2,3.1-2.1,5.1-2.9c2-0.7,4.4-1.1,7.2-1.1c4.1,0,7.4,0.6,9.9,1.9s4.4,3,5.7,5c1.4,2.1,2.3,4.4,2.7,7
				C630.6,102.1,630.8,104.7,630.8,107.3z M620.1,108c0-4.7-0.6-8.1-1.7-10.3c-1.2-2.2-3.3-3.2-6.5-3.2c-2.9,0-5,1.1-6.1,3.3
				c-1.1,2.2-1.7,5.6-1.7,10.2c0,4.4,0.5,7.7,1.6,9.9c1.1,2.2,3.1,3.3,6.1,3.3c3.1,0,5.2-1.1,6.4-3.2
				C619.5,115.8,620.1,112.5,620.1,108z"/>
		</g>
		<g>
			<path class="st0" d="M653.4,105.9c-0.1,3.3-0.3,6.3-0.6,8.9s-0.7,4.9-1.2,6.8s-1.3,3.5-2.4,4.8c-1.1,1.3-2.5,2.3-4.3,2.9
				c-1.8,0.7-4,1-6.8,1c-1.1,0-1.8-0.1-2.1-0.4s-0.4-0.7-0.4-1.3c0-0.7,0-1.5-0.1-2.2s-0.1-1.4-0.1-2.2c0-0.6,0.1-1,0.3-1.1
				c0.2-0.2,0.6-0.3,1.2-0.5c1.1-0.3,2-0.6,2.8-1c0.7-0.4,1.4-1,1.8-1.7c0.5-0.8,0.8-1.8,1.1-3c0.2-1.2,0.4-2.8,0.6-4.8
				c0.3-4.2,0.5-8.3,0.8-12.3c0.3-4.1,0.5-8.2,0.7-12.3c0-1,0.5-1.5,1.4-1.5h24.4c0.9,0,1.4,0.5,1.4,1.5v40.6c0,0.4-0.1,0.7-0.2,1
				c-0.2,0.3-0.5,0.5-1.1,0.5h-7.8c-1,0-1.5-0.5-1.5-1.4V95h-7.1C653.7,99,653.5,102.6,653.4,105.9z"/>
		</g>
		<g>
			<path class="st0" d="M680.5,99.5c0-2.4,0.4-4.4,1.2-6.1s1.9-3.1,3.3-4.2c1.4-1.1,2.9-1.9,4.7-2.5c1.7-0.5,3.5-0.8,5.3-0.8h16.1
				c0.6,0,1,0.1,1.1,0.4c0.2,0.3,0.3,0.6,0.3,1V128c0,0.4-0.1,0.8-0.3,1c-0.2,0.3-0.6,0.4-1.1,0.4h-7.8c-0.6,0-1-0.2-1.2-0.5
				s-0.3-0.6-0.3-1v-15.6h-3.9c-1,0-1.9,0.4-2.8,1c-0.8,0.6-1.6,1.8-2.2,3.5l-3.4,10.6c-0.3,0.7-0.6,1.3-0.9,1.5
				c-0.3,0.3-1,0.4-2,0.4h-6.9c-1.1,0-1.5-0.5-1.2-1.6l3.7-11.3c0.6-1.8,1.2-3.2,1.8-4.1c0.6-1,1.5-1.7,2.6-2.4
				c-1.2-0.4-2.2-1-3-1.8s-1.5-1.7-2-2.6c-0.5-1-0.8-2-1-3.1C680.6,101.6,680.5,100.6,680.5,99.5z M691.5,99.7c0,1,0.2,1.7,0.5,2.3
				c0.3,0.6,0.7,1,1.2,1.4c0.5,0.3,1.1,0.6,1.7,0.7c0.6,0.1,1.2,0.2,1.8,0.2h5.2V95h-5.2c-1.3,0-2.5,0.4-3.6,1.1
				C692.1,96.9,691.5,98.1,691.5,99.7z"/>
		</g>
	</g>
</g>
<g>
	<path class="st1" d="M73.7,42.8c-14,0-26.5,7-34,17.7l15,8.7c4.4-5.6,11.3-9.2,19-9.2s14.5,3.6,19,9.2l15-8.7
		C100.1,49.9,87.7,42.8,73.7,42.8z"/>
	<path class="st1" d="M73.7,64.1c-6.2,0-11.7,2.8-15.4,7.2l15.4,8.9l15.4-8.9C85.4,66.9,79.9,64.1,73.7,64.1z"/>
	<path class="st1" d="M73.7,20.6c12.8,0,24.7,3.8,34.7,10.3V20L73.7,0L39,20v10.8C48.9,24.4,60.9,20.6,73.7,20.6z"/>
	<path class="st1" d="M39,32.1v25.3c8-10.4,20.6-17,34.7-17s26.7,6.7,34.7,17V32.1c-9.9-6.6-21.9-10.5-34.7-10.5
		C60.8,21.6,48.9,25.5,39,32.1z"/>
</g>
<path class="st2" d="M10,84.3c0-0.9,0-1.9,0.1-2.8L0,87.3v40.1l34.7,20l10.7-6.2C24.4,130.8,10,109.2,10,84.3z M54.3,78.6
	c-0.5,1.8-0.8,3.7-0.8,5.7c0,9.7,6.8,17.8,15.9,19.7V87.3L54.3,78.6z M29.7,84.3c0-5.6,1.1-10.9,3-15.9L11.1,80.9
	C11,82,11,83.1,11,84.3c0,24.8,14.5,46.2,35.4,56.4l22.1-12.8C46.7,125.3,29.7,106.7,29.7,84.3z M49.5,84.3c0-2.7,0.4-5.3,1.3-7.7
	l-15.1-8.7c-2.2,5-3.4,10.6-3.4,16.4c0,21.4,16.3,39.1,37.1,41.2v-17.4C58.1,106,49.5,96.1,49.5,84.3z"/>
<path class="st2" d="M29.7,84.3c0-5.6,1.1-10.9,3-15.9L11.1,80.9C11,82,11,83.1,11,84.3c0,24.8,14.5,46.2,35.4,56.4l22.1-12.8
	C46.7,125.3,29.7,106.7,29.7,84.3z M54.3,78.6c-0.5,1.8-0.8,3.7-0.8,5.7c0,9.7,6.8,17.8,15.9,19.7V87.3L54.3,78.6z M49.5,84.3
	c0-2.7,0.4-5.3,1.3-7.7l-15.1-8.7c-2.2,5-3.4,10.6-3.4,16.4c0,21.4,16.3,39.1,37.1,41.2v-17.4C58.1,106,49.5,96.1,49.5,84.3z
	 M10,84.3c0-0.9,0-1.9,0.1-2.8L0,87.3v40.1l34.7,20l10.7-6.2C24.4,130.8,10,109.2,10,84.3z"/>
<path class="st0" d="M82.6,95.2c0-5.7,4.7-10.4,10.4-10.4c0.3,0,0.6,0,0.8,0c0-0.2,0-0.4,0-0.6c0-2-0.3-3.9-0.8-5.7l-15.1,8.7v16.7
	c2.4-0.5,4.6-1.5,6.6-2.8C83.3,99.5,82.6,97.5,82.6,95.2z M115.1,84.3c0-5.8-1.2-11.4-3.4-16.4l-15.1,8.7c0.8,2.4,1.3,5,1.3,7.7
	c0,0.6,0,1.2-0.1,1.8c3.3,1.7,5.6,5.2,5.6,9.2c0,5.7-4.7,10.4-10.4,10.4c-2,0-3.8-0.6-5.4-1.6c-2.8,2-6.1,3.4-9.6,4v17.4
	C98.8,123.3,115.1,105.6,115.1,84.3z M136.3,84.3c0-1.1,0-2.3-0.1-3.4l-21.6-12.5c1.9,4.9,3,10.3,3,15.9c0,22.5-17,41.1-38.8,43.6
	l22.1,12.8C121.9,130.5,136.3,109,136.3,84.3z M137.2,81.5c0,0.9,0.1,1.9,0.1,2.8c0,24.9-14.4,46.6-35.3,57l10.7,6.2l34.7-20V87.4
	L137.2,81.5z M86.6,95.2c0,3.5,2.8,6.4,6.4,6.4c3.5,0,6.4-2.8,6.4-6.4c0-3.5-2.8-6.4-6.4-6.4C89.5,88.9,86.6,91.7,86.6,95.2z"/>
</svg>
