<svg width="17" height="21" viewBox="0 0 17 21" fill="none" xmlns="http://www.w3.org/2000/svg">
<path d="M11.05 18.375C11.05 19.7733 9.8668 21 8.52465 21C7.1825 21 5.95 19.7733 5.95 18.375H11.05ZM11.1665 3.45187C10.6191 3.12462 10.2808 2.51562 10.2816 1.85938V1.85675C10.2824 0.83125 9.4843 0 8.5 0C7.5157 0 6.71755 0.83125 6.71755 1.85675V1.85938C6.7184 2.5165 6.38095 3.12462 5.8327 3.45187C1.8649 5.82225 4.14545 13.7025 0 15.0946V16.625H17V15.0946C12.8546 13.7025 15.136 5.82137 11.1665 3.45187ZM8.5 0.875C8.9692 0.875 9.35 1.26787 9.35 1.75C9.35 2.233 8.9692 2.625 8.5 2.625C8.0308 2.625 7.65 2.233 7.65 1.75C7.65 1.26787 8.0308 0.875 8.5 0.875ZM3.01665 14.875C4.0273 13.4164 4.3809 11.4704 4.68605 9.78688C5.066 7.69563 5.4247 5.71988 6.68695 4.9665C7.85995 4.26562 9.19955 4.3015 10.3139 4.9665C11.5761 5.71988 11.9349 7.69563 12.3148 9.78688C12.62 11.4704 12.9735 13.4164 13.9842 14.875H3.01665Z" fill="#E4002B"/>
</svg>
