<svg width="21" height="21" viewBox="0 0 21 21" fill="none" xmlns="http://www.w3.org/2000/svg">
<path d="M21 12.4136V8.58637C19.1205 7.91612 18.6147 7.88463 18.3514 7.2485C18.0863 6.61063 18.424 6.22563 19.278 4.42837L16.5716 1.722C14.7989 2.56463 14.3946 2.9155 13.7506 2.64862C13.1145 2.38437 13.0786 1.87075 12.4145 0H8.58637C7.91787 1.876 7.88638 2.38437 7.2485 2.64862C6.5905 2.9225 6.19587 2.56113 4.42837 1.722L1.722 4.42837C2.57687 6.2265 2.91375 6.60975 2.64862 7.24937C2.38437 7.8855 1.87775 7.91787 0 8.58637V12.4145C1.87162 13.0795 2.38437 13.1145 2.64862 13.7515C2.91462 14.3937 2.57775 14.7726 1.722 16.5716L4.42837 19.278C6.1775 18.4467 6.58963 18.0766 7.2485 18.3514C7.8855 18.6156 7.917 19.1214 8.58637 21H12.4136C13.0769 19.1354 13.1128 18.6174 13.7585 18.3479C14.4104 18.0784 14.7962 18.4345 16.5716 19.2771L19.278 16.5707C18.4249 14.777 18.0863 14.3903 18.3514 13.7506C18.6139 13.1154 19.1214 13.083 21 12.4136ZM16.7344 13.0821C16.2295 14.3019 16.6749 15.2329 17.1614 16.2129L16.2129 17.1614C15.2565 16.6863 14.322 16.2199 13.0865 16.7326C11.865 17.241 11.5202 18.214 11.172 19.25H9.82975C9.4815 18.2131 9.13762 17.2401 7.91962 16.7344C6.678 16.2199 5.726 16.695 4.788 17.1614L3.84037 16.2129C4.32775 15.2346 4.77312 14.3054 4.2665 13.0804C3.75987 11.8633 2.78688 11.5194 1.75 11.1711V9.82975C2.78688 9.4815 3.75988 9.13762 4.26562 7.91875C4.77138 6.699 4.32513 5.76713 3.83862 4.78713L4.78713 3.83862C5.73388 4.30938 6.67887 4.781 7.91962 4.26562C9.13762 3.76075 9.4815 2.78688 9.82975 1.75H11.172C11.5202 2.78688 11.865 3.75988 13.083 4.26562C14.3246 4.78013 15.2758 4.305 16.2146 3.83862L17.1631 4.78713C16.6766 5.768 16.2313 6.70075 16.7361 7.91962C17.241 9.13675 18.214 9.48063 19.2518 9.82975V11.172C18.2123 11.5202 17.2375 11.8641 16.7344 13.0821ZM10.5 7.875C11.9473 7.875 13.125 9.05275 13.125 10.5C13.125 11.9473 11.9473 13.125 10.5 13.125C9.05275 13.125 7.875 11.9473 7.875 10.5C7.875 9.05275 9.05275 7.875 10.5 7.875ZM10.5 6.125C8.08325 6.125 6.125 8.08325 6.125 10.5C6.125 12.9167 8.08325 14.875 10.5 14.875C12.9167 14.875 14.875 12.9167 14.875 10.5C14.875 8.08325 12.9167 6.125 10.5 6.125Z" fill="#E4002B"/>
</svg>
