<svg width="40" height="40" viewBox="0 0 40 40" fill="none" xmlns="http://www.w3.org/2000/svg">
<path d="M33.3333 5C33.3333 2.23833 31.0933 0 28.3333 0C25.5733 0 23.3333 2.23833 23.3333 5C23.3333 5.52 23.435 6.01 23.5817 6.48167L16.565 11.7433C17.3533 12.5283 18.0283 13.4267 18.5667 14.4083L25.5617 9.16167C26.3567 9.68833 27.3083 10 28.3333 10C31.0933 10 33.3333 7.76167 33.3333 5ZM30 5C30 5.91833 29.2533 6.66667 28.3333 6.66667C27.4133 6.66667 26.6667 5.91833 26.6667 5C26.6667 4.08167 27.4133 3.33333 28.3333 3.33333C29.2533 3.33333 30 4.08167 30 5ZM35 25.1033C37.76 25.1033 40 22.865 40 20.1033C40 17.3417 37.76 15.1033 35 15.1033C32.865 15.1033 31.055 16.4483 30.3383 18.3333H19.8667C19.945 18.88 20 19.4333 20 20C20 20.5667 19.945 21.12 19.8667 21.6667H30.2733C30.9333 23.6583 32.7883 25.1033 35 25.1033ZM33.3333 20.1033C33.3333 19.185 34.08 18.4367 35 18.4367C35.92 18.4367 36.6667 19.185 36.6667 20.1033C36.6667 21.0217 35.92 21.77 35 21.77C34.08 21.77 33.3333 21.0233 33.3333 20.1033ZM0 20C0 24.6017 3.73 28.3333 8.33333 28.3333C12.9367 28.3333 16.6667 24.6017 16.6667 20C16.6667 15.3983 12.9367 11.6667 8.33333 11.6667C3.73 11.6667 0 15.3983 0 20ZM3.33333 20C3.33333 17.2433 5.57667 15 8.33333 15C11.09 15 13.3333 17.2433 13.3333 20C13.3333 22.7567 11.09 25 8.33333 25C5.57667 25 3.33333 22.7567 3.33333 20ZM16.565 28.2583L23.5817 33.52C23.435 33.99 23.3333 34.48 23.3333 35C23.3333 37.7617 25.5733 40 28.3333 40C31.0933 40 33.3333 37.7617 33.3333 35C33.3333 32.2383 31.0933 30 28.3333 30C27.3083 30 26.3567 30.3117 25.5633 30.84L18.5683 25.5933C18.0283 26.575 17.3533 27.4717 16.565 28.2583ZM26.6667 35C26.6667 34.0817 27.4133 33.3333 28.3333 33.3333C29.2533 33.3333 30 34.0817 30 35C30 35.9183 29.2533 36.6667 28.3333 36.6667C27.4133 36.6667 26.6667 35.9183 26.6667 35Z" fill="#E4002B"/>
</svg>
