<svg width="42" height="21" viewBox="0 0 42 21" fill="none" xmlns="http://www.w3.org/2000/svg">
<path d="M31.4947 21H29.7483C29.7483 18.284 29.8532 17.8937 28.2082 17.5122C25.6917 16.9312 23.3135 16.3835 22.4455 14.4865C22.1305 13.7935 21.9187 12.6525 22.7167 11.1493C24.5035 7.7735 24.9515 4.879 23.9452 3.20775C22.7692 1.2565 19.208 1.24775 18.0215 3.2375C17.0135 4.9315 17.4685 7.81025 19.2692 11.1335C20.083 12.6315 19.8782 13.776 19.5632 14.4725C18.7057 16.3783 16.3502 16.9225 13.8547 17.4965C12.1362 17.8938 12.2448 18.2578 12.2448 21H10.5035L10.5 19.9098C10.5 17.7065 10.675 16.436 13.279 15.834C16.2225 15.1533 19.131 14.546 17.7327 11.9682C13.5922 4.3295 16.5498 0 20.9965 0C25.3575 0 28.3937 4.17025 24.2638 11.9682C22.9075 14.5302 25.7057 15.1393 28.7175 15.834C31.325 16.436 31.4983 17.71 31.4983 19.9168L31.4947 21ZM39.9122 17.1255C37.6565 16.604 35.5565 16.1473 36.5732 14.2257C39.6707 8.37725 37.3958 5.25 34.1233 5.25C31.9095 5.25 30.1892 6.67975 30.1892 9.31875C30.1892 11.5395 31.1938 13.125 31.7713 14.4375H33.6052C33.3077 13.125 31.0398 9.954 32.2648 7.8995C32.9858 6.6885 35.2468 6.68675 35.9643 7.8785C36.6293 8.98275 36.281 11.0495 35.0298 13.4102C34.3508 14.693 34.5398 15.687 34.818 16.2943C35.3518 17.4598 36.5278 18.0215 37.8577 18.4082C40.495 19.18 40.2517 18.4818 40.2517 20.9983H41.9965L42 20.188C42 18.5342 41.8705 17.577 39.9122 17.1255ZM0.0035 21H1.74825C1.74825 18.4835 1.505 19.1817 4.14225 18.41C5.474 18.0232 6.65 17.4615 7.182 16.296C7.46025 15.687 7.64925 14.6947 6.97025 13.412C5.719 11.0512 5.37075 8.9845 6.03575 7.88025C6.75325 6.68675 9.01425 6.6885 9.73525 7.90125C10.9603 9.9575 8.69225 13.1268 8.39475 14.4393H10.2287C10.8062 13.1268 11.8108 11.5413 11.8108 9.3205C11.8125 6.67975 10.0922 5.25 7.8785 5.25C4.606 5.25 2.331 8.37725 5.4285 14.2257C6.44525 16.149 4.34525 16.604 2.0895 17.1255C0.1295 17.577 0 18.5343 0 20.1898L0.0035 21Z" fill="#E4002B"/>
</svg>
