<svg width="21" height="21" viewBox="0 0 21 21" fill="none" xmlns="http://www.w3.org/2000/svg">
<path d="M20.9956 21H19.25C19.25 18.284 19.3541 17.8937 17.7091 17.5122C15.1918 16.9312 12.8144 16.3826 11.9481 14.4865C11.6322 13.7944 11.4222 12.6534 12.2194 11.1493C14.0061 7.77437 14.4541 4.87987 13.447 3.20775C12.2736 1.25737 8.71063 1.24687 7.52675 3.2375C6.517 4.93237 6.97113 7.81113 8.77275 11.1344C9.5865 12.6324 9.38263 13.7769 9.0685 14.4725C8.20925 16.3783 5.85287 16.9216 3.35912 17.4965C1.64062 17.8938 1.75 18.2577 1.75 21H0.004375L0 19.9141C0 17.7091 0.174125 16.436 2.78075 15.834C5.72512 15.1541 8.63275 14.5451 7.2345 11.9683C3.09312 4.33038 6.05325 0 10.5 0C14.8601 0 17.8946 4.17025 13.7655 11.9683C12.4084 14.5303 15.2093 15.1393 18.2192 15.834C20.8259 16.436 21 17.7091 21 19.9141L20.9956 21ZM15.75 18.375H11.375V20.125H15.75V18.375Z" fill="#E4002B"/>
</svg>
